<svg xmlns="http://www.w3.org/2000/svg" version="1.1" xmlns:xlink="http://www.w3.org/1999/xlink" xmlns:svgjs="http://svgjs.dev/svgjs" width="128" height="128" viewBox="0 0 128 128"><g transform="matrix(0.6319018404907976,0,0,0.6319018404907976,23.328871016392036,12.5)"><svg viewBox="0 0 176 225" data-background-color="#ffffff" preserveAspectRatio="xMidYMid meet" height="163" width="128" xmlns="http://www.w3.org/2000/svg" xmlns:xlink="http://www.w3.org/1999/xlink"><g id="tight-bounds" transform="matrix(1,0,0,1,0.5008079276588688,0)"><svg viewBox="0 0 175 225" height="225" width="175"><g><svg></svg></g><g><svg viewBox="0 0 175 225" height="225" width="175"><g><path transform="translate(-3.44567,21.55585) scale(0.00303,0.00303)" d="M25167 8301c221 0 400 179 400 400 0 221-179 400-400 400h-3824l-2753 2753c-156 156-409 156-566 0-156-156-156-409 0-566l2188-2188h-6475c-1847 0-3071 431-3819 1301-760 885-1068 2254-1068 4110 0 11 0 22-1 33l34 5884 2356-2356c156-156 409-156 566 0 156 156 156 409 0 566l-2915 2915c33 5746 31 11443-2 17189 4087 4041 8117 8068 12157 12154h4070c221 0 400 179 400 400 0 221-179 400-400 400h-3279l4160 4208 1-1c1313 1313 2498 2062 3660 2151 1146 87 2316-474 3622-1779l4579-4579h-3323c-221 0-400-179-400-400 0-221 179-400 400-400h4123l2666-2666c156-156 409-156 566 0 156 156 156 409 0 566l-2101 2101h6475c1847 0 3071-431 3819-1301 760-885 1068-2254 1068-4110h2l-34-5917-2568 2568c-156 156-409 156-566 0-156-156-156-409 0-566l3127-3127c-33-5746-31-11443 2-17189-4087-4041-8117-8068-12157-12154h-4193c-221 0-400-179-400-400 0-221 179-400 400-400h3402l-4141-4189c-7-6-13-12-20-18-1313-1313-2498-2062-3660-2151-1146-87-2316 474-3622 1779l-4579 4579h3024zM13737 8301h7275l5144-5144c1483-1483 2856-2116 4247-2010 1374 104 2719 934 4167 2382 8 8 15 15 22 23l4695 4749h6977c2096 0 3515 524 4425 1583 898 1045 1261 2582 1261 4629 0 13-1 25-2 37l-36 6373 4559 4508 1-1c1448 1448 2278 2792 2382 4167 106 1391-528 2764-2010 4247l-4934 4934 38 6710h2c0 2047-364 3584-1261 4629-910 1059-2329 1583-4425 1583h-7275l-5144 5144c-1483 1483-2856 2116-4247 2010-1374-104-2719-934-4167-2382l1-1-4718-4772h-6977c-2096 0-3515-524-4425-1583-898-1045-1261-2582-1261-4629h2l37-6410-4537-4485c-8-7-16-14-23-22-1448-1448-2278-2792-2382-4167-106-1391 528-2764 2010-4247l4934-4934-38-6672c-1-12-2-25-2-37 0-2047 364-3584 1261-4629 910-1059 2329-1583 4425-1583zM8141 30000l-44-7653-4374 4374c-1305 1305-1866 2476-1779 3622 88 1162 838 2348 2151 3660 6 6 13 13 18 20l3983 3937 45-7961zM8882 39860l-32 5627h2c0 1857 308 3226 1068 4110 748 871 1972 1301 3819 1301h6186l-5380-5442-5662-5597zM46264 9101h-6186l5380 5442 5662 5597 32-5594c-1-11-1-22-1-33 0-1857-308-3226-1068-4110-748-871-1972-1301-3819-1301zM51906 22039l-45 7961 44 7653 4374-4374c1305-1305 1866-2476 1779-3622-88-1163-838-2348-2151-3660l1-1-4002-3956z" fill="#1be358" fill-rule="nonzero" stroke="none" stroke-width="1" stroke-linecap="butt" stroke-linejoin="miter" stroke-miterlimit="10" stroke-dasharray="" stroke-dashoffset="0" font-family="none" font-weight="none" font-size="none" text-anchor="none" style="mix-blend-mode: normal" data-fill-palette-color="tertiary"></path></g><g transform="matrix(1,0,0,1,70.790825,99.23481173224174)"><svg viewBox="0 0 33.418350000000004 26.530376535516535" height="26.530376535516535" width="33.418350000000004"><g><svg viewBox="0 0 33.418350000000004 26.530376535516535" height="26.530376535516535" width="33.418350000000004"><g><svg viewBox="0 0 33.418350000000004 26.530376535516535" height="26.530376535516535" width="33.418350000000004"><g id="textblocktransform"><svg viewBox="0 0 33.418350000000004 26.530376535516535" height="26.530376535516535" width="33.418350000000004" id="textblock"><g><svg viewBox="0 0 33.418350000000004 26.530376535516535" height="26.530376535516535" width="33.418350000000004"><g><svg viewBox="0 0 33.418350000000004 26.530376535516535" height="26.530376535516535" width="33.418350000000004"><g><svg xmlns="http://www.w3.org/2000/svg" xmlns:xlink="http://www.w3.org/1999/xlink" version="1.1" x="0" y="0" viewBox="5.249 17.412 91.9325382787114 72.98400000000001" enable-background="new 0 0 100 100" xml:space="preserve" height="26.530376535516535" width="33.418350000000004" class="icon-icon-0" data-fill-palette-color="accent" id="icon-0"><g fill="#2257bf" data-fill-palette-color="accent"><path fill="#2257bf" d="M96.863 81.328L96.576 80.685 88.728 61.56C87.788 59.64 87.196 58.16 84.807 58.16H76.896V55.387C79.549 53.723 81.319 50.781 81.319 47.416 81.319 44.054 79.549 41.112 76.896 39.447V22.539A5.136 5.136 0 0 0 71.761 17.412H10.385C7.553 17.412 5.249 19.711 5.249 22.539V65.328A5.14 5.14 0 0 0 10.385 70.457H57.287V90.396H86.527L95.04 86.132A3.64 3.64 0 0 0 96.863 81.328M74.493 38.373A9.4 9.4 0 0 0 71.905 38.004C66.709 38.004 62.494 42.218 62.494 47.415A9.41 9.41 0 0 0 71.905 56.828C72.803 56.828 73.669 56.694 74.493 56.459V58.159H61.43L51.142 52.319 47.159 42.666A3.64 3.64 0 0 0 43.174 40.246L35.537 26.816A1.202 1.202 0 1 0 33.447 28.004L40.916 41.137C39.67 42.049 39.081 43.69 39.605 45.225L42.835 55.85 55.074 68.052H10.385A2.73 2.73 0 0 1 7.653 65.326V22.539A2.73 2.73 0 0 1 10.385 19.816H71.762A2.73 2.73 0 0 1 74.493 22.539z" data-fill-palette-color="accent"></path><g fill="#2257bf" data-fill-palette-color="accent"><path fill="#2257bf" d="M29.608 42.853H14.338A1.2 1.2 0 0 1 13.136 41.651V26.337C13.136 25.673 13.674 25.135 14.338 25.135H29.609C30.273 25.135 30.811 25.673 30.811 26.337V41.651A1.203 1.203 0 0 1 29.608 42.853" data-fill-palette-color="accent"></path></g><g fill="#2257bf" data-fill-palette-color="accent"><path fill="#2257bf" d="M35.758 49.123H14.338A1.706 1.706 0 1 1 14.338 45.709H35.759A1.706 1.706 0 1 1 35.758 49.123" data-fill-palette-color="accent"></path></g><g fill="#2257bf" data-fill-palette-color="accent"><path fill="#2257bf" d="M25.223 56.428H14.338A1.707 1.707 0 1 1 14.338 53.014H25.224A1.707 1.707 0 1 1 25.223 56.428" data-fill-palette-color="accent"></path></g></g></svg></g></svg></g></svg></g></svg></g></svg></g><g></g></svg></g></svg></g></svg></g><defs></defs></svg><rect width="175" height="225" fill="none" stroke="none" visibility="hidden"></rect></g></svg></g></svg>