<svg xmlns="http://www.w3.org/2000/svg" version="1.1" xmlns:xlink="http://www.w3.org/1999/xlink" xmlns:svgjs="http://svgjs.dev/svgjs" width="2000" height="1500" viewBox="0 0 2000 1500"><rect width="2000" height="1500" fill="#ffffff"></rect><g transform="matrix(0.75,0,0,0.75,250,144.59994950723626)"><svg viewBox="0 0 448 361" data-background-color="#ffffff" preserveAspectRatio="xMidYMid meet" height="1611" width="2000" xmlns="http://www.w3.org/2000/svg" xmlns:xlink="http://www.w3.org/1999/xlink"><g id="tight-bounds" transform="matrix(1,0,0,1,0,0.3809585995346083)"><svg viewBox="0 0 448 360" height="360" width="448"><g><svg></svg></g><g><svg viewBox="0 0 448 360" height="360" width="448"><g><path transform="translate(36.9151,-7.08178) scale(0.00624,0.00624)" d="M25167 8301c221 0 400 179 400 400 0 221-179 400-400 400h-3824l-2753 2753c-156 156-409 156-566 0-156-156-156-409 0-566l2188-2188h-6475c-1847 0-3071 431-3819 1301-760 885-1068 2254-1068 4110 0 11 0 22-1 33l34 5884 2356-2356c156-156 409-156 566 0 156 156 156 409 0 566l-2915 2915c33 5746 31 11443-2 17189 4087 4041 8117 8068 12157 12154h4070c221 0 400 179 400 400 0 221-179 400-400 400h-3279l4160 4208 1-1c1313 1313 2498 2062 3660 2151 1146 87 2316-474 3622-1779l4579-4579h-3323c-221 0-400-179-400-400 0-221 179-400 400-400h4123l2666-2666c156-156 409-156 566 0 156 156 156 409 0 566l-2101 2101h6475c1847 0 3071-431 3819-1301 760-885 1068-2254 1068-4110h2l-34-5917-2568 2568c-156 156-409 156-566 0-156-156-156-409 0-566l3127-3127c-33-5746-31-11443 2-17189-4087-4041-8117-8068-12157-12154h-4193c-221 0-400-179-400-400 0-221 179-400 400-400h3402l-4141-4189c-7-6-13-12-20-18-1313-1313-2498-2062-3660-2151-1146-87-2316 474-3622 1779l-4579 4579h3024zM13737 8301h7275l5144-5144c1483-1483 2856-2116 4247-2010 1374 104 2719 934 4167 2382 8 8 15 15 22 23l4695 4749h6977c2096 0 3515 524 4425 1583 898 1045 1261 2582 1261 4629 0 13-1 25-2 37l-36 6373 4559 4508 1-1c1448 1448 2278 2792 2382 4167 106 1391-528 2764-2010 4247l-4934 4934 38 6710h2c0 2047-364 3584-1261 4629-910 1059-2329 1583-4425 1583h-7275l-5144 5144c-1483 1483-2856 2116-4247 2010-1374-104-2719-934-4167-2382l1-1-4718-4772h-6977c-2096 0-3515-524-4425-1583-898-1045-1261-2582-1261-4629h2l37-6410-4537-4485c-8-7-16-14-23-22-1448-1448-2278-2792-2382-4167-106-1391 528-2764 2010-4247l4934-4934-38-6672c-1-12-2-25-2-37 0-2047 364-3584 1261-4629 910-1059 2329-1583 4425-1583zM8141 30000l-44-7653-4374 4374c-1305 1305-1866 2476-1779 3622 88 1162 838 2348 2151 3660 6 6 13 13 18 20l3983 3937 45-7961zM8882 39860l-32 5627h2c0 1857 308 3226 1068 4110 748 871 1972 1301 3819 1301h6186l-5380-5442-5662-5597zM46264 9101h-6186l5380 5442 5662 5597 32-5594c-1-11-1-22-1-33 0-1857-308-3226-1068-4110-748-871-1972-1301-3819-1301zM51906 22039l-45 7961 44 7653 4374-4374c1305-1305 1866-2476 1779-3622-88-1163-838-2348-2151-3660l1-1-4002-3956z" fill="#1be358" fill-rule="nonzero" stroke="none" stroke-width="1" stroke-linecap="butt" stroke-linejoin="miter" stroke-miterlimit="10" stroke-dasharray="" stroke-dashoffset="0" font-family="none" font-weight="none" font-size="none" text-anchor="none" style="mix-blend-mode: normal" data-fill-palette-color="tertiary"></path></g><g transform="matrix(1,0,0,1,117.64407732913646,90)"><svg viewBox="0 0 212.71184534172707 180" height="180" width="212.71184534172707"><g><svg viewBox="0 0 212.71184534172707 180" height="180" width="212.71184534172707"><g><svg viewBox="0 0 224 189.55220822434632" height="180" width="212.71184534172707"><g transform="matrix(1,0,0,1,0,113.17604151579275)"><svg viewBox="0 0 224 76.37616670855358" height="76.37616670855358" width="224"><g id="textblocktransform"><svg viewBox="0 0 224 76.37616670855358" height="76.37616670855358" width="224" id="textblock"><g><svg viewBox="0 0 224 52.24760234486226" height="52.24760234486226" width="224"><g transform="matrix(1,0,0,1,0,0)"><svg width="224" viewBox="0.4833333333333334 -37.7 205.55499999999668 47.95" height="52.24760234486226" data-palette-color="#2257bf"><path d="M13.05-9.65L13.05-9.65Q14.65-8.2 16.05-6.58 17.45-4.95 18.75-3.2L18.75-3.2Q18.8-3.1 19.03-2.83 19.25-2.55 19.15-2.45L19.15-2.45Q19.1-2.4 18.78-2.53 18.45-2.65 18.35-2.75L18.35-2.75Q17.95-3 17.43-3.4 16.9-3.8 16.32-4.25 15.75-4.7 15.2-5.18 14.65-5.65 14.3-6.05L14.3-6.05Q14.05-6.25 13.1-7.08 12.15-7.9 10.95-8.85 9.75-9.8 8.5-10.6 7.25-11.4 6.45-11.6L6.45-11.6Q6.3-11.65 6.03-11.75 5.75-11.85 5.8-12.1L5.8-12.1Q6.2-14 6.8-15.8 7.4-17.6 7.95-19.5L7.95-19.5Q8.65-21.85 9.28-24.3 9.9-26.75 10-29.6L10-29.6Q10-29.85 10.05-29.85L10.05-29.85Q10.2-29.85 10.3-29.5L10.3-29.5Q10.9-28.15 10.8-26 10.7-23.85 10.28-21.53 9.85-19.2 9.22-17.07 8.6-14.95 8.15-13.7L8.15-13.7 8-13.3Q9.85-14.55 11.85-15.8 13.85-17.05 15.58-18.32 17.3-19.6 18.57-20.98 19.85-22.35 20.3-23.85L20.3-23.85Q20.6-24.85 20.23-25.85 19.85-26.85 18.93-27.73 18-28.6 16.6-29.25 15.2-29.9 13.5-30.15L13.5-30.15Q11.25-30.45 8.95-30.3L8.95-30.3Q9.15-28.8 9.03-27.28 8.9-25.75 8.65-24.65L8.65-24.65Q8-21.95 7-19.07 6-16.2 4.95-13.7L4.95-13.7Q4.85-13.55 4.65-13.2 4.45-12.85 4.3-12.9L4.3-12.9Q4.2-12.95 4.25-13.35 4.3-13.75 4.3-13.9L4.3-13.9Q4.35-14.5 4.53-15.38 4.7-16.25 4.88-17.2 5.05-18.15 5.28-19.03 5.5-19.9 5.7-20.55L5.7-20.55Q5.8-20.85 6.03-21.83 6.25-22.8 6.5-24.15 6.75-25.5 7-27.05 7.25-28.6 7.4-30.05L7.4-30.05 6.7-29.95Q6.55-28.05 6.1-26.1 5.65-24.15 5.08-22.18 4.5-20.2 3.88-18.18 3.25-16.15 2.8-14.2L2.8-14.2Q2.4-12.45 2.18-10.55 1.95-8.65 2.02-6.8 2.1-4.95 2.48-3.23 2.85-1.5 3.7-0.1L3.7-0.1Q3.8 0.15 3.7 0.15L3.7 0.15Q3.6 0.15 3.45 0L3.45 0Q2.2-1.45 1.55-3.25 0.9-5.05 0.73-7.03 0.55-9 0.78-11.1 1-13.2 1.45-15.2L1.45-15.2Q2.3-18.95 3.5-22.6 4.7-26.25 5.5-29.65L5.5-29.65Q4.25-29.35 3.05-28.93 1.85-28.5 0.8-28L0.8-28Q0.55-27.9 0.5-27.95L0.5-27.95Q0.45-28 0.55-28.13 0.65-28.25 0.75-28.3L0.75-28.3Q3.25-30.35 6.85-31.2 10.45-32.05 14.2-31.65L14.2-31.65Q16.15-31.4 17.78-30.55 19.4-29.7 20.45-28.48 21.5-27.25 21.83-25.75 22.15-24.25 21.5-22.75L21.5-22.75Q20.75-21 19.13-19.5 17.5-18 15.48-16.7 13.45-15.4 11.2-14.3 8.95-13.2 7-12.25L7-12.25Q7.8-12.25 8.65-12 9.5-11.75 10.33-11.38 11.15-11 11.88-10.55 12.6-10.1 13.05-9.65ZM26.9-22.15L26.9-22.15Q26.15-19.55 24.63-17.73 23.1-15.9 21.25-14.7 19.4-13.5 17.5-12.88 15.6-12.25 14.2-12.05L14.2-12.05Q13.8-11.95 13.48-11.98 13.15-12 13.2-12.1L13.2-12.1Q13.1-12.2 13.43-12.3 13.75-12.4 14.1-12.55L14.1-12.55Q16.8-13.55 19.3-15.15 21.8-16.75 23.7-19.4L23.7-19.4Q24.6-20.65 25.05-22.3 25.5-23.95 25.38-25.65 25.25-27.35 24.53-28.95 23.8-30.55 22.4-31.7L22.4-31.7Q20.75-33.1 18.8-33.9 16.85-34.7 14.8-35 12.75-35.3 10.65-35.13 8.55-34.95 6.6-34.45L6.6-34.45Q6.25-34.35 6.2-34.33 6.15-34.3 6.1-34.4L6.1-34.4Q6.1-34.45 6.5-34.75L6.5-34.75Q7.3-35.25 8.63-35.68 9.95-36.1 11.63-36.25 13.3-36.4 15.25-36.23 17.2-36.05 19.25-35.3L19.25-35.3Q21.35-34.6 23.2-33.13 25.05-31.65 26.15-29.5L26.15-29.5Q27.2-27.4 27.23-25.43 27.25-23.45 26.9-22.15ZM1.5-30.3L1.5-30.3Q2.5-31.75 4.15-32.68 5.8-33.6 7.75-34.05 9.7-34.5 11.83-34.45 13.95-34.4 15.95-33.95 17.95-33.5 19.68-32.6 21.4-31.7 22.55-30.4L22.55-30.4Q23.35-29.45 23.78-28.38 24.2-27.3 24.23-26.18 24.25-25.05 23.98-24 23.7-22.95 23.2-22.05L23.2-22.05Q23.1-21.85 22.7-21.38 22.3-20.9 22.2-21L22.2-21Q22.1-21.05 22.35-21.55 22.6-22.05 22.7-22.3L22.7-22.3Q23.1-23.6 23.03-24.88 22.95-26.15 22.53-27.25 22.1-28.35 21.4-29.23 20.7-30.1 19.9-30.65L19.9-30.65Q18-31.9 15.6-32.43 13.2-32.95 10.73-32.83 8.25-32.7 5.9-31.98 3.55-31.25 1.85-30.05L1.85-30.05Q1.4-29.65 1.25-29.8L1.25-29.8Q1.15-29.85 1.28-30.03 1.4-30.2 1.5-30.3ZM28.15 1.2L28.15 1.2Q28.45 1.15 28.45 1.25L28.45 1.25Q28.45 1.35 28.2 1.45L28.2 1.45Q26.4 2.1 24.7 2.15 23 2.2 21.45 1.83 19.9 1.45 18.55 0.78 17.2 0.1 16.1-0.7L16.1-0.7Q14.8-1.65 13.63-2.83 12.45-4 11.35-5.18 10.25-6.35 9.15-7.45 8.05-8.55 6.9-9.4L6.9-9.4Q6.05-6.6 5.35-4.45L5.35-4.45Q5.25-4.2 5.15-4 5.05-3.8 4.95-3.85L4.95-3.85Q4.85-3.9 4.85-4.13 4.85-4.35 4.85-4.6L4.85-4.6Q4.95-6 5.05-7.45 5.15-8.9 5.5-10.35L5.5-10.35Q5.15-10.55 4.83-10.7 4.5-10.85 4.1-11.05L4.1-11.05Q3.95-11.2 3.95-11.25L3.95-11.25Q3.95-11.3 4.08-11.3 4.2-11.3 4.3-11.3L4.3-11.3Q6.3-11.15 7.95-10.08 9.6-9 11.15-7.55 12.7-6.1 14.2-4.48 15.7-2.85 17.4-1.6L17.4-1.6Q18.35-0.9 19.58-0.33 20.8 0.25 22.2 0.65 23.6 1.05 25.13 1.23 26.65 1.4 28.15 1.2ZM20.4-6.1L20.4-6.1Q21.8-4.85 23.08-3.3 24.35-1.75 25.55-0.8L25.55-0.8Q25.9-0.45 25.85-0.3L25.85-0.3Q25.75-0.2 25.6-0.25 25.45-0.3 25.25-0.35L25.25-0.35Q23.9-0.8 22.73-1.6 21.55-2.4 20.45-3.4 19.35-4.4 18.32-5.5 17.3-6.6 16.25-7.65L16.25-7.65Q15.55-8.35 14.73-9.2 13.9-10.05 13-10.78 12.1-11.5 11.13-11.98 10.15-12.45 9.1-12.45L9.1-12.45 11.05-13.3Q11.8-13.65 12.9-14.15 14-14.65 15-15.1 16-15.55 16.75-15.83 17.5-16.1 17.55-16.05L17.55-16.05Q17.6-15.95 17.38-15.7 17.15-15.45 16.78-15.15 16.4-14.85 16.05-14.6 15.7-14.35 15.55-14.3L15.55-14.3Q14.6-13.75 13.78-13.28 12.95-12.8 12.1-12.4L12.1-12.4Q13.25-11.95 14.45-11.13 15.65-10.3 16.75-9.35 17.85-8.4 18.8-7.53 19.75-6.65 20.4-6.1ZM4.2-3L4.2-3Q4.35-2.15 4.6-1.35 4.85-0.55 5.2 0L5.2 0Q5.25 0 5.28 0.08 5.3 0.15 5.2 0.15L5.2 0.15Q5.1 0.15 4.98 0.08 4.85 0 4.75 0L4.75 0Q4.1-0.4 3.73-0.98 3.35-1.55 3.1-3L3.1-3Q3-3.55 3-4.4 3-5.25 3.05-6.03 3.1-6.8 3.2-7.35 3.3-7.9 3.5-7.9L3.5-7.9Q3.55-7.9 3.63-7.65 3.7-7.4 3.75-7.08 3.8-6.75 3.83-6.45 3.85-6.15 3.85-6.05L3.85-6.05Q3.95-5.2 4-4.45 4.05-3.7 4.2-3ZM26.1 0.15L26.1 0.15Q26.9 0.2 27.33 0.18 27.75 0.15 28.45 0.05L28.45 0.05Q28.5 0.05 28.7 0.03 28.9 0 28.95 0.05L28.95 0.05Q29 0.15 28.83 0.3 28.65 0.45 28.55 0.5L28.55 0.5Q27.75 0.75 27.08 0.85 26.4 0.95 25.1 0.8L25.1 0.8Q24.65 0.75 24.1 0.6 23.55 0.45 23.1 0.28 22.65 0.1 22.4-0.08 22.15-0.25 22.3-0.35L22.3-0.35Q22.4-0.4 22.93-0.28 23.45-0.15 23.65-0.1L23.65-0.1Q24.35 0.05 24.95 0.1 25.55 0.15 26.1 0.15ZM55.6-22.45L55.6-22.45Q55.6-20.15 55.17-17.57 54.75-15 53.87-12.5 53-10 51.7-7.75 50.4-5.5 48.62-3.78 46.85-2.05 44.6-1.03 42.35 0 39.65 0L39.65 0Q37.15 0 35.32-1.48 33.5-2.95 32.37-5.35 31.25-7.75 30.82-10.85 30.4-13.95 30.7-17.15 31-20.35 31.97-23.45 32.95-26.55 34.65-28.95 36.35-31.35 38.75-32.83 41.15-34.3 44.25-34.3L44.25-34.3Q46.7-34.3 48.35-33.2 50-32.1 51.02-30.4 52.05-28.7 52.5-26.63 52.95-24.55 52.95-22.6L52.95-22.6Q52.95-20.25 52.55-18.03 52.15-15.8 51.15-13.7L51.15-13.7Q50.85-13 50.82-13.23 50.8-13.45 50.9-13.9L50.9-13.9Q51.25-15.7 51.52-17.48 51.8-19.25 51.8-21.1L51.8-21.1Q51.8-22.85 51.45-24.9 51.1-26.95 50.25-28.7 49.4-30.45 47.9-31.63 46.4-32.8 44.1-32.8L44.1-32.8Q42.15-32.8 40.45-32.05 38.75-31.3 37.37-30.05 36-28.8 34.95-27.13 33.9-25.45 33.15-23.65L33.15-23.65Q32.55-22.15 32.15-19.88 31.75-17.6 31.7-15.1 31.65-12.6 32-10.05 32.35-7.5 33.3-5.5 34.25-3.5 35.8-2.23 37.35-0.95 39.7-0.95L39.7-0.95Q42.15-0.95 44.35-2.33 46.55-3.7 48.32-5.78 50.1-7.85 51.35-10.23 52.6-12.6 53.15-14.65L53.15-14.65Q53.65-16.45 53.92-18.68 54.2-20.9 54.07-23.18 53.95-25.45 53.37-27.6 52.8-29.75 51.65-31.43 50.5-33.1 48.72-34.13 46.95-35.15 44.4-35.15L44.4-35.15Q40.6-35.15 37.85-33.25 35.1-31.35 33.32-28.45 31.55-25.55 30.7-22.05 29.85-18.55 29.85-15.35L29.85-15.35Q29.85-13.85 30.05-12.33 30.25-10.8 30.35-9.8L30.35-9.8Q30.4-9.4 30.27-9.38 30.15-9.35 30-9.75L30-9.75Q29.8-10.4 29.65-11.28 29.5-12.15 29.37-13.13 29.25-14.1 29.17-15.08 29.1-16.05 29.1-16.9L29.1-16.9Q29.1-20.4 30.02-23.93 30.95-27.45 32.85-30.25 34.75-33.05 37.67-34.83 40.6-36.6 44.6-36.6L44.6-36.6Q47.6-36.6 49.7-35.25 51.8-33.9 53.12-31.83 54.45-29.75 55.02-27.25 55.6-24.75 55.6-22.45ZM50.9-22L50.9-22Q50.9-19.85 50.4-17.48 49.9-15.1 48.92-12.83 47.95-10.55 46.55-8.58 45.15-6.6 43.35-5.2L43.35-5.2Q42.5-4.55 41.52-4.1 40.55-3.65 39.4-3.65L39.4-3.65Q38.4-3.65 37.72-4.08 37.05-4.5 36.55-5.25L36.55-5.25Q36.15-5.8 36.3-5.8 36.45-5.8 36.85-5.4L36.85-5.4Q37.3-5 37.75-4.7 38.2-4.4 38.95-4.4L38.95-4.4Q40.35-4.4 41.62-5.38 42.9-6.35 43.75-7.35L43.75-7.35Q45.05-8.75 46.05-10.48 47.05-12.2 47.72-14.08 48.4-15.95 48.75-17.88 49.1-19.8 49.1-21.7L49.1-21.7Q49.1-22.95 48.87-24.45 48.65-25.95 48.02-27.28 47.4-28.6 46.32-29.5 45.25-30.4 43.55-30.4L43.55-30.4Q41.7-30.4 40.25-29.6 38.8-28.8 37.65-27.58 36.5-26.35 35.57-24.83 34.65-23.3 33.85-21.85L33.85-21.85Q33.7-21.55 33.62-21.5 33.55-21.45 33.55-21.55L33.55-21.55Q33.5-21.65 33.55-21.85L33.55-21.85Q34.1-23.7 35.05-25.5 36-27.3 37.32-28.7 38.65-30.1 40.3-30.98 41.95-31.85 43.9-31.85L43.9-31.85Q45.75-31.85 47.1-30.85 48.45-29.85 49.27-28.38 50.1-26.9 50.5-25.18 50.9-23.45 50.9-22ZM41.85-2.45L41.85-2.45Q40.7-1.85 39.4-1.85L39.4-1.85Q37.6-1.85 36.3-2.85 35-3.85 34.12-5.3 33.25-6.75 32.85-8.45 32.45-10.15 32.45-11.6L32.45-11.6Q32.45-11.9 32.5-12.5 32.55-13.1 32.62-13.68 32.7-14.25 32.82-14.7 32.95-15.15 33.15-15.15L33.15-15.15Q33.35-15.15 33.32-14.38 33.3-13.6 33.4-12.2L33.4-12.2Q33.45-11.1 33.85-9.45 34.25-7.8 35-6.28 35.75-4.75 36.85-3.65 37.95-2.55 39.4-2.55L39.4-2.55Q40.65-2.55 41.65-2.75L41.65-2.75Q42.15-2.85 42.4-2.85 42.65-2.85 41.85-2.45ZM75-34.65L75-34.65Q74.9-33.95 74.37-33.4 73.84-32.85 73.15-32.48 72.45-32.1 71.67-31.88 70.9-31.65 70.25-31.65L70.25-31.65Q69.45-31.65 68.37-31.85 67.3-32.05 66.32-32.35 65.34-32.65 64.67-32.95 64-33.25 64-33.5L64-33.5Q64-33.6 64.2-33.65 64.39-33.7 64.72-33.75 65.05-33.8 65.39-33.8 65.75-33.8 66-33.8L66-33.8Q67-33.8 68.22-33.7 69.45-33.6 70.45-33.65L70.45-33.65Q71.25-33.65 71.8-33.7 72.34-33.75 72.82-33.88 73.3-34 73.75-34.18 74.2-34.35 74.8-34.65L74.8-34.65Q74.9-34.75 75-34.65ZM75.5-36.25L75.5-36.25Q75.5-35.75 75.02-35.4 74.55-35.05 73.92-34.83 73.3-34.6 72.62-34.48 71.95-34.35 71.59-34.35L71.59-34.35Q69.75-34.35 67.84-34.75 65.95-35.15 64.09-35.15L64.09-35.15Q61.9-35.15 60.15-34.13 58.4-33.1 57.4-31.25L57.4-31.25Q57.3-31.1 57.15-31.1 57-31.1 57.09-31.35L57.09-31.35Q57.9-33.8 59.65-35.25 61.4-36.7 64.2-36.7L64.2-36.7Q66.3-36.7 68.37-36.23 70.45-35.75 72.55-35.75L72.55-35.75Q73.3-35.75 74.12-35.93 74.95-36.1 75.15-36.2L75.15-36.2Q75.2-36.25 75.34-36.27 75.5-36.3 75.5-36.25ZM61.34-33.2L61.34-33.2Q61.34-33.1 61.05-32.85 60.75-32.6 60.34-32.33 59.95-32.05 59.57-31.83 59.2-31.6 59.05-31.5L59.05-31.5Q58.59-31.1 58.25-30.68 57.9-30.25 57.5-29.8L57.5-29.8Q57.45-29.8 57.45-29.73 57.45-29.65 57.34-29.65L57.34-29.65Q57.3-29.65 57.3-29.8L57.3-29.8Q57.3-30.4 57.65-31.05 58-31.7 58.52-32.23 59.05-32.75 59.72-33.08 60.4-33.4 61.05-33.4L61.05-33.4Q61.34-33.4 61.34-33.2ZM72.7-24.35L72.7-24.35Q72.75-21.9 72.2-19.23 71.65-16.55 70.65-13.83 69.65-11.1 68.37-8.45 67.09-5.8 65.7-3.45 64.3-1.1 62.9 0.9 61.5 2.9 60.34 4.3L60.34 4.3Q60.3 4.35 60.2 4.48 60.09 4.6 60 4.73 59.9 4.85 59.8 4.88 59.7 4.9 59.7 4.7L59.7 4.7Q59.65 4.55 60.27 3.33 60.9 2.1 61.82 0.3 62.75-1.5 63.87-3.6 65-5.7 66-7.63 67-9.55 67.75-11.03 68.5-12.5 68.7-13.05L68.7-13.05Q69.25-14.55 69.82-16.23 70.4-17.9 70.87-19.7 71.34-21.5 71.62-23.4 71.9-25.3 71.84-27.25L71.84-27.25Q71.84-27.65 71.9-27.65L71.9-27.65Q72-27.65 72.05-27.58 72.09-27.5 72.2-27.15L72.2-27.15Q72.34-26.65 72.52-25.73 72.7-24.8 72.7-24.35ZM68.65-29.45L68.65-29.45Q68.25-25.35 67.4-22.08 66.55-18.8 65.52-16.15 64.5-13.5 63.37-11.35 62.25-9.2 61.34-7.4L61.34-7.4Q60.4-5.5 59.57-3.6 58.75-1.7 58.12 0.28 57.5 2.25 57.12 4.35 56.75 6.45 56.75 8.8L56.75 8.8Q56.75 9.35 56.65 9.25L56.65 9.25Q56.55 9.25 56.47 8.97 56.4 8.7 56.3 8.33 56.2 7.95 56.12 7.6 56.05 7.25 56.05 7L56.05 7Q55.8 4.7 56.07 2.68 56.34 0.65 56.92-1.23 57.5-3.1 58.3-4.85 59.09-6.6 59.84-8.4L59.84-8.4Q60.65-10.3 61.82-12.8 63-15.3 64.14-18.07 65.3-20.85 66.25-23.78 67.2-26.7 67.55-29.45L67.55-29.45Q65.64-29.55 63.62-29.88 61.59-30.2 59.84-30.7L59.84-30.7Q59.75-30.75 59.65-30.8 59.55-30.85 59.55-30.95L59.55-30.95Q59.5-31.1 59.77-31.2 60.05-31.3 60.09-31.3L60.09-31.3Q61.7-31.7 63.09-31.7L63.09-31.7Q65-31.7 66.84-31.33 68.7-30.95 70.59-30.95L70.59-30.95Q71.2-30.95 71.87-31.08 72.55-31.2 72.8-31.3L72.8-31.3Q73-31.4 73-31.28 73-31.15 72.95-31.05L72.95-31.05Q72.5-30.5 71.87-30.18 71.25-29.85 70.55-29.65L70.55-29.65Q70.7-29 70.75-28.48 70.8-27.95 70.84-27.55L70.84-27.55Q71.15-25 70.57-22.18 70-19.35 68.9-16.53 67.8-13.7 66.3-10.98 64.8-8.25 63.25-5.95L63.25-5.95Q62.84-5.4 62.67-5.6 62.5-5.8 62.75-6.45L62.75-6.45Q63.05-7.25 63.7-8.68 64.34-10.1 65.05-11.63 65.75-13.15 66.34-14.5 66.95-15.85 67.15-16.45L67.15-16.45Q68.45-20.5 69.02-23.78 69.59-27.05 69.5-29.5L69.5-29.5Q69.25-29.45 69.05-29.45 68.84-29.45 68.65-29.45ZM59.9-0.25L59.9-0.25Q59.9 0.05 59.75 0.83 59.59 1.6 59.4 2.5 59.2 3.4 59 4.23 58.8 5.05 58.75 5.45L58.75 5.45Q58.5 6.5 58.37 7.55 58.25 8.6 58.15 9.75L58.15 9.75Q58.15 9.85 58.12 10.05 58.09 10.25 57.95 10.25L57.95 10.25Q57.84 10.2 57.8 9.95 57.75 9.7 57.7 9.6L57.7 9.6Q57.59 9.15 57.47 8.43 57.34 7.7 57.34 7.3L57.34 7.3Q57.34 6.05 57.59 4.67 57.84 3.3 58.2 2.15 58.55 1 58.95 0.25 59.34-0.5 59.7-0.45L59.7-0.45Q59.8-0.4 59.82-0.35 59.84-0.3 59.9-0.25ZM83.49-25.4L83.49-25.4Q82.79-22.7 81.77-19.8 80.74-16.9 79.64-14.3L79.64-14.3Q79.59-14.2 79.39-13.83 79.19-13.45 79.09-13.5L79.09-13.5Q78.94-13.5 78.97-13.93 78.99-14.35 79.04-14.5L79.04-14.5Q79.09-15.1 79.27-16 79.44-16.9 79.62-17.85 79.79-18.8 80.02-19.7 80.24-20.6 80.44-21.25L80.44-21.25Q80.59-21.7 80.99-23.5 81.39-25.3 81.77-27.5 82.14-29.7 82.34-31.75 82.54-33.8 82.34-34.75L82.34-34.75Q82.24-35.2 82.34-35.2L82.34-35.2Q82.44-35.2 82.52-35.08 82.59-34.95 82.69-34.85L82.69-34.85Q83.24-34 83.54-32.8 83.84-31.6 83.92-30.28 83.99-28.95 83.87-27.65 83.74-26.35 83.49-25.4ZM81.24-36.1L81.24-36.1Q81.94-33.7 81.69-31.13 81.44-28.55 80.72-25.85 79.99-23.15 79.09-20.35 78.19-17.55 77.54-14.8L77.54-14.8Q76.94-12.2 76.72-9.65 76.49-7.1 77.04-4.45L77.04-4.45Q77.19-4.7 77.37-4.8 77.54-4.9 77.74-5.05L77.74-5.05Q77.74-5.65 77.74-6.28 77.74-6.9 77.79-7.4 77.84-7.9 77.94-8.2 78.04-8.5 78.24-8.5L78.24-8.5Q78.29-8.5 78.37-8.25 78.44-8 78.49-7.68 78.54-7.35 78.59-7.03 78.64-6.7 78.64-6.6L78.64-6.6Q78.69-6.2 78.69-6 78.69-5.8 78.79-5.55L78.79-5.55Q78.89-5.6 79.12-5.68 79.34-5.75 79.59-5.8L79.59-5.8Q79.84-9.4 80.74-12.98 81.64-16.55 82.74-20.2L82.74-20.2Q83.44-22.55 84.07-25.03 84.69-27.5 84.79-30.35L84.79-30.35Q84.79-30.6 84.94-30.6L84.94-30.6Q84.99-30.6 84.99-30.5 84.99-30.4 85.09-30.3L85.09-30.3Q85.64-28.95 85.49-26.78 85.34-24.6 84.89-22.28 84.44-19.95 83.84-17.78 83.24-15.6 82.94-14.3L82.94-14.3Q82.39-12.2 81.69-10.03 80.99-7.85 80.34-5.95L80.34-5.95Q81.29-6.1 82.37-6.15 83.44-6.2 84.34-6.18 85.24-6.15 85.92-6.13 86.59-6.1 86.79-6.1L86.79-6.1Q88.24-6.05 89.79-5.75 91.34-5.45 92.49-5.25L92.49-5.25Q92.89-5.15 92.89-5.05L92.89-5.05Q92.89-4.95 92.74-4.9 92.59-4.85 92.49-4.8L92.49-4.8Q90.29-4.1 88.07-4.23 85.84-4.35 83.44-4.6L83.44-4.6Q82.54-4.7 81.57-4.75 80.59-4.8 79.64-4.73 78.69-4.65 77.82-4.38 76.94-4.1 76.24-3.5L76.24-3.5Q75.14-6.35 75.29-9.5 75.44-12.65 76.19-15.8L76.19-15.8Q76.84-18.55 77.69-21.28 78.54-24 79.27-26.58 79.99-29.15 80.47-31.55 80.94-33.95 80.89-36.15L80.89-36.15Q80.99-36.45 81.04-36.45L81.04-36.45Q81.09-36.5 81.14-36.33 81.19-36.15 81.24-36.1ZM95.19-6.25L95.19-6.25Q95.29-6.4 95.37-6.23 95.44-6.05 95.34-5.8L95.34-5.8Q95.04-5.05 94.77-4.5 94.49-3.95 93.69-3.4L93.69-3.4Q93.34-3.15 92.84-2.95 92.34-2.75 91.89-2.65 91.44-2.55 91.09-2.55 90.74-2.55 90.74-2.75L90.74-2.75Q90.69-2.9 91.17-3.15 91.64-3.4 91.84-3.5L91.84-3.5Q92.24-3.75 92.64-3.98 93.04-4.2 93.44-4.5L93.44-4.5Q93.84-4.9 94.32-5.3 94.79-5.7 95.19-6.25ZM95.44-4.75L95.44-4.75Q95.59-5 95.59-4.8 95.59-4.6 95.54-4.5L95.54-4.5Q94.79-2.8 93.82-1.9 92.84-1 91.72-0.58 90.59-0.15 89.37-0.08 88.14 0 86.94 0L86.94 0Q83.59-0.05 80.42-0.28 77.24-0.5 74.69 0L74.69 0Q74.59 0 74.49 0.03 74.39 0.05 74.59-0.1L74.59-0.1Q75.79-1.3 77.29-1.55 78.79-1.8 80.47-1.63 82.14-1.45 83.89-1.1 85.64-0.75 87.29-0.7L87.29-0.7Q89.39-0.65 91.62-1.58 93.84-2.5 95.44-4.75ZM87.79-2.45L87.79-2.45Q87.79-2.35 87.59-2.3 87.39-2.25 87.29-2.25L87.29-2.25Q86.54-2.1 85.27-2.05 83.99-2 82.94-2.1L82.94-2.1Q82.69-2.1 81.79-2.18 80.89-2.25 79.72-2.23 78.54-2.2 77.34-1.95 76.14-1.7 75.29-1.1L75.29-1.1Q75.09-0.9 74.99-1.05L74.99-1.05Q74.99-1.1 75.07-1.28 75.14-1.45 75.19-1.5L75.19-1.5Q75.89-2.6 77.37-3.18 78.84-3.75 80.34-3.9L80.34-3.9Q81.94-4.05 83.79-3.73 85.64-3.4 87.29-2.9L87.29-2.9Q87.34-2.9 87.57-2.75 87.79-2.6 87.79-2.45ZM119.94-34.65L119.94-34.65Q120.29-34.9 120.24-34.68 120.19-34.45 120.09-34.3L120.09-34.3Q119.64-33.6 118.91-33.1 118.19-32.6 117.36-32.3 116.54-32 115.74-31.85 114.94-31.7 114.34-31.7L114.34-31.7Q112.79-31.7 111.14-32 109.49-32.3 107.84-32.65L107.84-32.65Q107.74-32.65 107.49-32.75 107.24-32.85 107.24-32.95L107.24-32.95Q107.14-33.1 107.41-33.2 107.69-33.3 107.79-33.3L107.79-33.3Q108.14-33.4 108.72-33.48 109.29-33.55 109.94-33.6 110.59-33.65 111.16-33.65 111.74-33.65 112.14-33.65L112.14-33.65Q113.24-33.55 114.41-33.55 115.59-33.55 116.64-33.65 117.69-33.75 118.56-34 119.44-34.25 119.94-34.65ZM120.64-36.3L120.64-36.3Q120.89-36.4 120.79-36.25 120.69-36.1 120.64-36.05L120.64-36.05Q119.34-34.9 117.79-34.6 116.24-34.3 114.56-34.38 112.89-34.45 111.11-34.68 109.34-34.9 107.54-34.8L107.54-34.8Q106.49-34.75 105.34-34.4 104.19-34.05 103.16-33.43 102.14-32.8 101.31-31.83 100.49-30.85 100.04-29.6L100.04-29.6Q99.94-29.4 99.91-29.4 99.89-29.4 99.86-29.45 99.84-29.5 99.84-29.6 99.84-29.7 99.84-29.75L99.84-29.75Q100.14-31.55 100.94-32.8 101.74-34.05 102.84-34.83 103.94-35.6 105.24-35.95 106.54-36.3 107.84-36.35L107.84-36.35Q109.64-36.4 111.36-36.23 113.09-36.05 114.72-35.9 116.34-35.75 117.84-35.77 119.34-35.8 120.64-36.3ZM104.19-32.4L104.19-32.4Q104.29-32.25 103.89-31.9 103.49-31.55 103.29-31.45L103.29-31.45Q102.89-31.15 102.54-30.88 102.19-30.6 101.89-30.2L101.89-30.2Q101.49-29.75 101.22-29.3 100.94-28.85 100.69-28.3L100.69-28.3Q100.59-27.95 100.49-27.95L100.49-27.95Q100.44-27.95 100.44-28.3L100.44-28.3 100.44-28.65Q100.54-29.4 100.74-30 100.94-30.6 101.44-31.25L101.44-31.25Q101.64-31.55 102.11-31.83 102.59-32.1 103.04-32.3 103.49-32.5 103.84-32.55 104.19-32.6 104.19-32.4ZM117.69-31.3L117.69-31.3Q117.94-31.4 117.91-31.28 117.89-31.15 117.79-31.05L117.79-31.05Q117.14-30.3 115.91-29.95 114.69-29.6 113.29-29.48 111.89-29.35 110.52-29.4 109.14-29.45 108.24-29.45L108.24-29.45Q108.54-28.45 108.52-27.03 108.49-25.6 108.27-23.98 108.04-22.35 107.69-20.7 107.34-19.05 106.99-17.6L106.99-17.6Q108.34-17.5 109.64-17.32 110.94-17.15 112.14-17.07 113.34-17 114.44-17.07 115.54-17.15 116.59-17.55L116.59-17.55Q116.84-17.65 116.84-17.5 116.84-17.35 116.74-17.25L116.74-17.25Q115.54-16.05 114.09-15.75 112.64-15.45 111.04-15.55 109.44-15.65 107.79-15.9 106.14-16.15 104.49-16.1L104.49-16.1Q103.44-16.05 102.39-15.75 101.34-15.45 100.36-14.85 99.39-14.25 98.56-13.38 97.74-12.5 97.24-11.3L97.24-11.3Q97.19-11.1 97.09-11.1L97.09-11.1Q96.99-11.1 96.99-11.28 96.99-11.45 97.04-11.55L97.04-11.55Q97.29-13 97.89-13.95 98.49-14.9 99.34-15.6L99.34-15.6Q100.19-19.2 101.27-22.8 102.34-26.4 103.04-29.6L103.04-29.6Q102.99-29.6 102.72-29.63 102.44-29.65 102.44-29.75L102.44-29.75Q102.44-29.85 102.59-29.95 102.74-30.05 102.89-30.15L102.89-30.15Q104.99-31.15 107.19-31.23 109.39-31.3 111.69-31.1L111.69-31.1Q113.14-31 114.61-30.9 116.09-30.8 117.69-31.3ZM107.84-29.45L106.69-29.45Q106.74-28.2 106.69-27.1 106.64-26 106.39-25.15L106.39-25.15Q105.94-23.35 105.39-21.4 104.84-19.45 104.14-17.6L104.14-17.6Q104.34-17.65 104.59-17.65 104.84-17.65 105.09-17.65L105.09-17.65 105.84-20Q106.54-22.2 107.11-24.55 107.69-26.9 107.84-29.45L107.84-29.45ZM105.49-29.5L104.54-29.5Q104.14-26.5 103.09-23.35 102.04-20.2 101.19-16.9L101.19-16.9Q101.59-17.05 101.91-17.18 102.24-17.3 102.54-17.4L102.54-17.4Q102.79-18.4 103.04-19.33 103.29-20.25 103.54-20.95L103.54-20.95Q103.64-21.25 103.89-22.1 104.14-22.95 104.44-24.15 104.74-25.35 105.04-26.75 105.34-28.15 105.49-29.5L105.49-29.5ZM116.14-15.9L116.14-15.9Q116.39-16.1 116.36-15.88 116.34-15.65 116.24-15.55L116.24-15.55Q115.84-14.85 115.22-14.3 114.59-13.75 113.89-13.43 113.19-13.1 112.47-12.93 111.74-12.75 111.19-12.8L111.19-12.8Q109.64-12.9 107.94-13.23 106.24-13.55 104.69-13.9L104.69-13.9Q104.59-13.95 104.36-14.03 104.14-14.1 104.14-14.25L104.14-14.25Q104.09-14.35 104.31-14.48 104.54-14.6 104.64-14.6L104.64-14.6Q104.99-14.7 105.52-14.75 106.04-14.8 106.61-14.85 107.19-14.9 107.72-14.88 108.24-14.85 108.59-14.8L108.59-14.8Q109.49-14.7 110.56-14.7 111.64-14.7 112.72-14.85 113.79-15 114.69-15.25 115.59-15.5 116.14-15.9ZM117.24-6.5L117.24-6.5Q117.34-6.55 117.34-6.45L117.34-6.45Q117.34-6.35 117.29-6.25L117.29-6.25Q116.19-5.05 114.86-4.75 113.54-4.45 112.09-4.53 110.64-4.6 109.14-4.9 107.64-5.2 106.19-5.2L106.19-5.2Q104.34-5.25 102.41-4.35 100.49-3.45 99.19-1.25L99.19-1.25Q99.04-1.05 98.99-1.05L98.99-1.05Q98.94-1.05 98.97-1.2 98.99-1.35 98.99-1.4L98.99-1.4Q99.19-1.95 99.36-2.25 99.54-2.55 99.74-2.95L99.74-2.95Q99.04-4.35 98.74-5.78 98.44-7.2 98.39-8.75L98.39-8.75Q98.39-9.9 98.59-10.45 98.79-11 99.94-11.6L99.94-11.6Q101.84-12.6 103.99-12.6 106.14-12.6 108.29-12.35L108.29-12.35Q109.69-12.2 111.09-12.13 112.49-12.05 113.99-12.55L113.99-12.55Q114.24-12.65 114.19-12.48 114.14-12.3 114.04-12.2L114.04-12.2Q113.39-11.4 112.24-11.1 111.09-10.8 109.79-10.73 108.49-10.65 107.29-10.7 106.09-10.75 105.39-10.7L105.39-10.7 105.09-10.7Q104.74-9.5 104.36-8.43 103.99-7.35 103.64-6.35L103.64-6.35Q104.39-6.6 105.06-6.73 105.74-6.85 106.49-6.8L106.49-6.8Q107.94-6.75 109.39-6.5 110.84-6.25 112.22-6.08 113.59-5.9 114.86-5.93 116.14-5.95 117.24-6.5ZM103.39-10.75L103.39-10.75Q103.09-10.8 102.47-10.88 101.84-10.95 101.09-10.85L101.09-10.85Q100.59-10.8 100.24-10.45 99.89-10.1 99.84-9.6L99.84-9.6Q99.74-8.1 99.89-6.73 100.04-5.35 100.39-3.9L100.39-3.9 100.99-4.65Q100.94-5.25 100.94-5.95 100.94-6.65 101.02-7.23 101.09-7.8 101.19-8.15 101.29-8.5 101.44-8.5L101.44-8.5Q101.54-8.5 101.59-8.25 101.64-8 101.69-7.7 101.74-7.4 101.77-7.1 101.79-6.8 101.79-6.65L101.79-6.65Q101.84-6.35 101.86-6.08 101.89-5.8 101.94-5.5L101.94-5.5Q102.19-5.65 102.39-5.8 102.59-5.95 102.84-6.05L102.84-6.05Q102.89-8.3 103.39-10.75ZM116.89-4.85L116.89-4.85Q116.89-4.7 116.79-4.5L116.79-4.5Q116.49-3.8 115.94-3.28 115.39-2.75 114.74-2.4 114.09-2.05 113.41-1.88 112.74-1.7 112.24-1.7L112.24-1.7Q110.49-1.7 109.06-2.1 107.64-2.5 106.24-3L106.24-3Q106.14-3.05 105.94-3.15 105.74-3.25 105.69-3.4L105.69-3.4Q105.64-3.5 105.89-3.6 106.14-3.7 106.24-3.7L106.24-3.7Q106.54-3.75 107.02-3.78 107.49-3.8 108.02-3.8 108.54-3.8 109.04-3.78 109.54-3.75 109.89-3.75L109.89-3.75Q110.74-3.7 111.74-3.68 112.74-3.65 113.66-3.78 114.59-3.9 115.41-4.15 116.24-4.4 116.69-4.85L116.69-4.85Q116.84-5 116.89-4.85ZM101.34-13.85L101.34-13.85Q101.34-13.7 101.02-13.4 100.69-13.1 100.27-12.75 99.84-12.4 99.47-12.1 99.09-11.8 98.99-11.7L98.99-11.7Q98.59-11.3 98.24-10.93 97.89-10.55 97.64-10L97.64-10Q97.39-9.55 97.39-9.88 97.39-10.2 97.44-10.35L97.44-10.35Q97.54-10.75 97.77-11.43 97.99-12.1 98.64-12.75L98.64-12.75Q98.94-13 99.36-13.28 99.79-13.55 100.22-13.73 100.64-13.9 100.97-13.95 101.29-14 101.34-13.85ZM115.04-1.45L115.04-1.45Q115.09-1.25 114.89-1.15L114.89-1.15Q114.29-0.65 113.22-0.43 112.14-0.2 110.91-0.1 109.69 0 108.54 0 107.39 0 106.69 0L106.69 0Q105.44 0 104.06-0.18 102.69-0.35 101.69-0.6L101.69-0.6Q101.59-0.65 101.41-0.68 101.24-0.7 101.24-0.8L101.24-0.8Q101.24-0.9 101.41-0.98 101.59-1.05 101.69-1.1L101.69-1.1Q103.59-1.7 105.56-1.63 107.54-1.55 109.54-1.3L109.54-1.3Q110.79-1.1 112.06-1 113.34-0.9 114.74-1.45L114.74-1.45Q115.04-1.55 115.04-1.45ZM103.19-3.15L103.19-3.15Q103.19-3 102.86-2.78 102.54-2.55 102.14-2.3 101.74-2.05 101.36-1.83 100.99-1.6 100.84-1.5L100.84-1.5Q100.44-1.15 100.14-0.9 99.84-0.65 99.54-0.25L99.54-0.25Q99.29 0 99.19 0L99.19 0 99.14 0 99.14-0.05Q99.14-0.05 99.14-0.15L99.14-0.15Q99.39-0.9 99.66-1.4 99.94-1.9 100.64-2.45L100.64-2.45Q100.94-2.65 101.34-2.88 101.74-3.1 102.14-3.23 102.54-3.35 102.84-3.35 103.14-3.35 103.19-3.15ZM136.74-35.8L136.74-35.8Q136.64-35.95 136.46-36.27 136.29-36.6 136.39-36.7L136.39-36.7Q136.49-36.8 136.71-36.65 136.94-36.5 136.99-36.45L136.99-36.45Q137.89-35.8 138.66-34.65 139.44-33.5 140.06-32.13 140.69-30.75 141.19-29.25 141.69-27.75 141.99-26.4L141.99-26.4Q142.74-23.1 143.26-19.9 143.79-16.7 143.79-13.3L143.79-13.3Q143.79-13.2 143.81-12.7 143.84-12.2 143.64-12.1L143.64-12.1Q143.49-12.2 143.31-12.6 143.14-13 143.09-13.15L143.09-13.15Q142.49-15 142.01-17.38 141.54-19.75 141.14-21.7L141.14-21.7Q140.84-23.2 140.59-24.58 140.34-25.95 140.01-27.25 139.69-28.55 139.26-29.88 138.84-31.2 138.24-32.65L138.24-32.65Q138.14-32.85 137.91-33.35 137.69-33.85 137.44-34.35 137.19-34.85 136.99-35.27 136.79-35.7 136.74-35.8ZM148.74 1.25L148.74 1.25Q148.19 0.95 147.99 0.88 147.79 0.8 147.24 0.45L147.24 0.45Q146.04-0.25 145.04-1.38 144.04-2.5 143.24-3.85 142.44-5.2 141.81-6.73 141.19-8.25 140.74-9.75L140.74-9.75Q139.74-9.1 138.36-8.97 136.99-8.85 135.84-8.85L135.84-8.85Q134.39-8.85 132.96-8.95 131.54-9.05 130.09-9.05L130.09-9.05Q128.69-6.45 127.46-4.03 126.24-1.6 125.54 0.5L125.54 0.5Q125.54 0.55 125.49 0.73 125.44 0.9 125.34 0.9L125.34 0.9Q125.19 0.9 125.19 0.55 125.19 0.2 125.19 0.1L125.19 0.1Q125.19-1.9 126.16-4.38 127.14-6.85 128.34-9.25L128.34-9.25 127.59-9.3Q127.29-8.6 126.76-7.35 126.24-6.1 125.76-4.75 125.29-3.4 124.91-2.15 124.54-0.9 124.54-0.15L124.54-0.15Q124.54 0 124.39 0L124.39 0Q124.19 0 124.09-0.33 123.99-0.65 123.91-1.05 123.84-1.45 123.81-1.88 123.79-2.3 123.79-2.45L123.79-2.45Q123.79-4.2 124.24-6.13 124.69-8.05 125.44-9.65L125.44-9.65 124.79-9.75Q124.34-8.65 123.94-7.58 123.54-6.5 123.24-5.35L123.24-5.35Q123.24-5.25 123.19-5.1 123.14-4.95 123.04-5L123.04-5Q122.94-5.2 122.91-5.48 122.89-5.75 122.89-5.95L122.89-5.95Q122.89-8.05 123.64-10L123.64-10Q123.89-10.5 124.14-10.5L124.14-10.5Q125.19-10.8 126.26-10.85 127.34-10.9 128.49-10.9L128.49-10.9Q130.99-10.9 133.44-10.53 135.89-10.15 138.34-10.15L138.34-10.15Q139.54-10.15 140.54-10.35L140.54-10.35 140.44-11.15Q139.89-11 139.26-10.95 138.64-10.9 138.09-10.9L138.09-10.9Q136.14-10.9 134.06-11.3 131.99-11.7 130.09-12.25L130.09-12.25Q129.99-12.35 129.69-12.43 129.39-12.5 129.39-12.65L129.39-12.65Q129.39-12.75 129.69-12.83 129.99-12.9 130.09-12.9L130.09-12.9Q130.79-12.95 131.46-12.98 132.14-13 132.84-13L132.84-13Q133.99-13 135.14-12.98 136.29-12.95 137.49-12.95L137.49-12.95Q138.09-12.95 138.74-12.95 139.39-12.95 139.99-13L139.99-13 139.89-13.55 139.24-13.55Q136.84-13.55 134.46-14 132.09-14.45 129.69-14.45L129.69-14.45Q127.64-14.45 126.06-13.95 124.49-13.45 123.36-12.8 122.24-12.15 121.54-11.5 120.84-10.85 120.54-10.55L120.54-10.55Q120.44-10.5 120.44-10.5L120.44-10.5Q120.39-10.5 120.39-10.6L120.39-10.6Q120.39-10.65 120.44-10.7L120.44-10.7Q121.34-12.45 122.64-13.63 123.94-14.8 125.84-15.4L125.84-15.4Q127.74-19.45 129.76-23.45 131.79-27.45 134.04-31.35L134.04-31.35Q134.09-31.45 134.24-31.68 134.39-31.9 134.54-31.9L134.54-31.9Q134.59-31.85 134.59-31.8L134.59-31.8 134.59-31.7Q134.59-31.3 134.54-31.1L134.54-31.1Q133.59-27.05 131.74-23.3 129.89-19.55 127.94-15.9L127.94-15.9 128.89-15.95Q129.04-16.25 129.66-17.25 130.29-18.25 131.01-19.33 131.74-20.4 132.34-21.28 132.94-22.15 133.09-22.15L133.09-22.15 133.14-22Q133.14-21.75 132.84-20.9 132.54-20.05 132.14-19.05 131.74-18.05 131.36-17.18 130.99-16.3 130.84-15.95L130.84-15.95Q131.14-15.95 131.44-15.93 131.74-15.9 132.04-15.9L132.04-15.9Q132.94-17.7 133.96-19.68 134.99-21.65 135.74-23.7 136.49-25.75 136.76-27.85 137.04-29.95 136.44-32L136.44-32Q136.44-31.75 136.31-31 136.19-30.25 135.99-29.43 135.79-28.6 135.59-27.98 135.39-27.35 135.19-27.35L135.19-27.35Q135.04-27.35 135.06-27.55 135.09-27.75 135.09-27.8L135.09-27.8Q135.09-29.1 135.26-30.38 135.44-31.65 135.44-32.95L135.44-32.95Q135.44-34.7 134.89-36.35L134.89-36.35Q134.89-36.4 134.74-36.77 134.59-37.15 134.84-37.15L134.84-37.15Q134.94-37.15 135.19-36.9L135.19-36.9Q135.69-36.4 136.16-35.55 136.64-34.7 137.04-33.73 137.44-32.75 137.79-31.8 138.14-30.85 138.34-30.2L138.34-30.2Q138.99-28.05 139.41-25.88 139.84-23.7 140.16-21.53 140.49-19.35 140.84-17.15 141.19-14.95 141.64-12.8L141.64-12.8Q142.09-10.7 142.71-8.7 143.34-6.7 144.24-4.9 145.14-3.1 146.31-1.58 147.49-0.05 149.04 1.1L149.04 1.1Q149.29 1.35 149.21 1.43 149.14 1.5 148.74 1.25ZM148.49-3.6L148.64-3Q148.69-2.7 148.59-2.73 148.49-2.75 148.36-2.9 148.24-3.05 148.11-3.25 147.99-3.45 147.99-3.5L147.99-3.5Q146.79-5.7 146.09-7.98 145.39-10.25 144.99-12.58 144.59-14.9 144.31-17.28 144.04-19.65 143.66-22.13 143.29-24.6 142.69-27.15 142.09-29.7 140.99-32.35L140.99-32.35Q140.94-32.45 140.84-32.7 140.74-32.95 140.84-33L140.84-33Q140.94-33 141.09-32.85L141.09-32.85 141.29-32.65Q142.39-31.35 143.24-29.2 144.09-27.05 144.74-24.6 145.39-22.15 145.81-19.75 146.24-17.35 146.49-15.55L146.49-15.55Q146.89-12.7 147.34-9.55 147.79-6.4 148.49-3.6L148.49-3.6ZM133.79-15.7L133.79-15.7Q135.24-15.55 136.66-15.35 138.09-15.15 139.54-15.05L139.54-15.05Q138.99-17.7 138.59-20.3 138.19-22.9 137.84-25.6L137.84-25.6Q137.19-23 136.06-20.55 134.94-18.1 133.79-15.7ZM150.24 0.7L150.24 0.7Q149.24 0.25 148.49-0.18 147.74-0.6 147.19-1.35L147.19-1.35Q146.34-2.5 145.86-3.65 145.39-4.8 145.09-5.8L145.09-5.8Q144.99-6.2 144.91-6.7 144.84-7.2 144.94-7.2L144.94-7.2Q145.14-7.2 145.44-6.55 145.74-5.9 145.99-5.45L145.99-5.45Q146.74-3.9 147.89-2.33 149.04-0.75 150.39 0.25L150.39 0.25Q150.79 0.6 150.64 0.7 150.49 0.8 150.24 0.7ZM120.69-8.9L120.69-8.9Q120.69-8.9 120.59-8.9L120.59-8.9 120.54-8.9Q120.54-9.05 120.59-9.2 120.64-9.35 120.69-9.5L120.69-9.5Q121.09-10.35 121.46-10.78 121.84-11.2 122.69-11.7L122.69-11.7Q123.19-12 124.09-12.3 124.99-12.6 125.54-12.6L125.54-12.6Q125.64-12.6 125.81-12.58 125.99-12.55 125.99-12.4L125.99-12.4Q125.99-12.25 125.46-12 124.94-11.75 124.79-11.65L124.79-11.65Q122.89-10.5 121.99-9.9 121.09-9.3 120.69-8.9ZM163.44-9.65L163.44-9.65Q165.03-8.2 166.44-6.58 167.83-4.95 169.13-3.2L169.13-3.2Q169.19-3.1 169.41-2.83 169.63-2.55 169.53-2.45L169.53-2.45Q169.48-2.4 169.16-2.53 168.83-2.65 168.73-2.75L168.73-2.75Q168.33-3 167.81-3.4 167.28-3.8 166.71-4.25 166.13-4.7 165.58-5.18 165.03-5.65 164.69-6.05L164.69-6.05Q164.44-6.25 163.48-7.08 162.53-7.9 161.33-8.85 160.13-9.8 158.88-10.6 157.63-11.4 156.83-11.6L156.83-11.6Q156.69-11.65 156.41-11.75 156.13-11.85 156.19-12.1L156.19-12.1Q156.58-14 157.19-15.8 157.78-17.6 158.33-19.5L158.33-19.5Q159.03-21.85 159.66-24.3 160.28-26.75 160.38-29.6L160.38-29.6Q160.38-29.85 160.44-29.85L160.44-29.85Q160.58-29.85 160.69-29.5L160.69-29.5Q161.28-28.15 161.19-26 161.08-23.85 160.66-21.53 160.23-19.2 159.61-17.07 158.98-14.95 158.53-13.7L158.53-13.7 158.38-13.3Q160.23-14.55 162.23-15.8 164.23-17.05 165.96-18.32 167.69-19.6 168.96-20.98 170.23-22.35 170.69-23.85L170.69-23.85Q170.98-24.85 170.61-25.85 170.23-26.85 169.31-27.73 168.38-28.6 166.98-29.25 165.58-29.9 163.88-30.15L163.88-30.15Q161.63-30.45 159.33-30.3L159.33-30.3Q159.53-28.8 159.41-27.28 159.28-25.75 159.03-24.65L159.03-24.65Q158.38-21.95 157.38-19.07 156.38-16.2 155.33-13.7L155.33-13.7Q155.23-13.55 155.03-13.2 154.83-12.85 154.69-12.9L154.69-12.9Q154.58-12.95 154.63-13.35 154.69-13.75 154.69-13.9L154.69-13.9Q154.73-14.5 154.91-15.38 155.08-16.25 155.26-17.2 155.44-18.15 155.66-19.03 155.88-19.9 156.08-20.55L156.08-20.55Q156.19-20.85 156.41-21.83 156.63-22.8 156.88-24.15 157.13-25.5 157.38-27.05 157.63-28.6 157.78-30.05L157.78-30.05 157.08-29.95Q156.94-28.05 156.48-26.1 156.03-24.15 155.46-22.18 154.88-20.2 154.26-18.18 153.63-16.15 153.19-14.2L153.19-14.2Q152.78-12.45 152.56-10.55 152.33-8.65 152.41-6.8 152.48-4.95 152.86-3.23 153.23-1.5 154.08-0.1L154.08-0.1Q154.19 0.15 154.08 0.15L154.08 0.15Q153.98 0.15 153.83 0L153.83 0Q152.58-1.45 151.94-3.25 151.28-5.05 151.11-7.03 150.94-9 151.16-11.1 151.38-13.2 151.83-15.2L151.83-15.2Q152.69-18.95 153.88-22.6 155.08-26.25 155.88-29.65L155.88-29.65Q154.63-29.35 153.44-28.93 152.23-28.5 151.19-28L151.19-28Q150.94-27.9 150.88-27.95L150.88-27.95Q150.83-28 150.94-28.13 151.03-28.25 151.13-28.3L151.13-28.3Q153.63-30.35 157.23-31.2 160.83-32.05 164.58-31.65L164.58-31.65Q166.53-31.4 168.16-30.55 169.78-29.7 170.83-28.48 171.88-27.25 172.21-25.75 172.53-24.25 171.88-22.75L171.88-22.75Q171.13-21 169.51-19.5 167.88-18 165.86-16.7 163.83-15.4 161.58-14.3 159.33-13.2 157.38-12.25L157.38-12.25Q158.19-12.25 159.03-12 159.88-11.75 160.71-11.38 161.53-11 162.26-10.55 162.98-10.1 163.44-9.65ZM177.28-22.15L177.28-22.15Q176.53-19.55 175.01-17.73 173.48-15.9 171.63-14.7 169.78-13.5 167.88-12.88 165.98-12.25 164.58-12.05L164.58-12.05Q164.19-11.95 163.86-11.98 163.53-12 163.58-12.1L163.58-12.1Q163.48-12.2 163.81-12.3 164.13-12.4 164.48-12.55L164.48-12.55Q167.19-13.55 169.69-15.15 172.19-16.75 174.08-19.4L174.08-19.4Q174.98-20.65 175.44-22.3 175.88-23.95 175.76-25.65 175.63-27.35 174.91-28.95 174.19-30.55 172.78-31.7L172.78-31.7Q171.13-33.1 169.19-33.9 167.23-34.7 165.19-35 163.13-35.3 161.03-35.13 158.94-34.95 156.98-34.45L156.98-34.45Q156.63-34.35 156.58-34.33 156.53-34.3 156.48-34.4L156.48-34.4Q156.48-34.45 156.88-34.75L156.88-34.75Q157.69-35.25 159.01-35.68 160.33-36.1 162.01-36.25 163.69-36.4 165.63-36.23 167.58-36.05 169.63-35.3L169.63-35.3Q171.73-34.6 173.58-33.13 175.44-31.65 176.53-29.5L176.53-29.5Q177.58-27.4 177.61-25.43 177.63-23.45 177.28-22.15ZM151.88-30.3L151.88-30.3Q152.88-31.75 154.53-32.68 156.19-33.6 158.13-34.05 160.08-34.5 162.21-34.45 164.33-34.4 166.33-33.95 168.33-33.5 170.06-32.6 171.78-31.7 172.94-30.4L172.94-30.4Q173.73-29.45 174.16-28.38 174.58-27.3 174.61-26.18 174.63-25.05 174.36-24 174.08-22.95 173.58-22.05L173.58-22.05Q173.48-21.85 173.08-21.38 172.69-20.9 172.58-21L172.58-21Q172.48-21.05 172.73-21.55 172.98-22.05 173.08-22.3L173.08-22.3Q173.48-23.6 173.41-24.88 173.33-26.15 172.91-27.25 172.48-28.35 171.78-29.23 171.08-30.1 170.28-30.65L170.28-30.65Q168.38-31.9 165.98-32.43 163.58-32.95 161.11-32.83 158.63-32.7 156.28-31.98 153.94-31.25 152.23-30.05L152.23-30.05Q151.78-29.65 151.63-29.8L151.63-29.8Q151.53-29.85 151.66-30.03 151.78-30.2 151.88-30.3ZM178.53 1.2L178.53 1.2Q178.83 1.15 178.83 1.25L178.83 1.25Q178.83 1.35 178.58 1.45L178.58 1.45Q176.78 2.1 175.08 2.15 173.38 2.2 171.83 1.83 170.28 1.45 168.94 0.78 167.58 0.1 166.48-0.7L166.48-0.7Q165.19-1.65 164.01-2.83 162.83-4 161.73-5.18 160.63-6.35 159.53-7.45 158.44-8.55 157.28-9.4L157.28-9.4Q156.44-6.6 155.73-4.45L155.73-4.45Q155.63-4.2 155.53-4 155.44-3.8 155.33-3.85L155.33-3.85Q155.23-3.9 155.23-4.13 155.23-4.35 155.23-4.6L155.23-4.6Q155.33-6 155.44-7.45 155.53-8.9 155.88-10.35L155.88-10.35Q155.53-10.55 155.21-10.7 154.88-10.85 154.48-11.05L154.48-11.05Q154.33-11.2 154.33-11.25L154.33-11.25Q154.33-11.3 154.46-11.3 154.58-11.3 154.69-11.3L154.69-11.3Q156.69-11.15 158.33-10.08 159.98-9 161.53-7.55 163.08-6.1 164.58-4.48 166.08-2.85 167.78-1.6L167.78-1.6Q168.73-0.9 169.96-0.33 171.19 0.25 172.58 0.65 173.98 1.05 175.51 1.23 177.03 1.4 178.53 1.2ZM170.78-6.1L170.78-6.1Q172.19-4.85 173.46-3.3 174.73-1.75 175.94-0.8L175.94-0.8Q176.28-0.45 176.23-0.3L176.23-0.3Q176.13-0.2 175.98-0.25 175.83-0.3 175.63-0.35L175.63-0.35Q174.28-0.8 173.11-1.6 171.94-2.4 170.83-3.4 169.73-4.4 168.71-5.5 167.69-6.6 166.63-7.65L166.63-7.65Q165.94-8.35 165.11-9.2 164.28-10.05 163.38-10.78 162.48-11.5 161.51-11.98 160.53-12.45 159.48-12.45L159.48-12.45 161.44-13.3Q162.19-13.65 163.28-14.15 164.38-14.65 165.38-15.1 166.38-15.55 167.13-15.83 167.88-16.1 167.94-16.05L167.94-16.05Q167.98-15.95 167.76-15.7 167.53-15.45 167.16-15.15 166.78-14.85 166.44-14.6 166.08-14.35 165.94-14.3L165.94-14.3Q164.98-13.75 164.16-13.28 163.33-12.8 162.48-12.4L162.48-12.4Q163.63-11.95 164.83-11.13 166.03-10.3 167.13-9.35 168.23-8.4 169.19-7.53 170.13-6.65 170.78-6.1ZM154.58-3L154.58-3Q154.73-2.15 154.98-1.35 155.23-0.55 155.58 0L155.58 0Q155.63 0 155.66 0.08 155.69 0.15 155.58 0.15L155.58 0.15Q155.48 0.15 155.36 0.08 155.23 0 155.13 0L155.13 0Q154.48-0.4 154.11-0.98 153.73-1.55 153.48-3L153.48-3Q153.38-3.55 153.38-4.4 153.38-5.25 153.44-6.03 153.48-6.8 153.58-7.35 153.69-7.9 153.88-7.9L153.88-7.9Q153.94-7.9 154.01-7.65 154.08-7.4 154.13-7.08 154.19-6.75 154.21-6.45 154.23-6.15 154.23-6.05L154.23-6.05Q154.33-5.2 154.38-4.45 154.44-3.7 154.58-3ZM176.48 0.15L176.48 0.15Q177.28 0.2 177.71 0.18 178.13 0.15 178.83 0.05L178.83 0.05Q178.88 0.05 179.08 0.03 179.28 0 179.33 0.05L179.33 0.05Q179.38 0.15 179.21 0.3 179.03 0.45 178.94 0.5L178.94 0.5Q178.13 0.75 177.46 0.85 176.78 0.95 175.48 0.8L175.48 0.8Q175.03 0.75 174.48 0.6 173.94 0.45 173.48 0.28 173.03 0.1 172.78-0.08 172.53-0.25 172.69-0.35L172.69-0.35Q172.78-0.4 173.31-0.28 173.83-0.15 174.03-0.1L174.03-0.1Q174.73 0.05 175.33 0.1 175.94 0.15 176.48 0.15ZM191.63-25.15L191.63-25.15Q192.08-22.5 192.18-19.35 192.28-16.2 192.38-13.55L192.38-13.55Q192.38-13.4 192.36-13 192.33-12.6 192.13-12.55L192.13-12.55Q192.03-12.55 191.88-12.98 191.73-13.4 191.68-13.55L191.68-13.55Q191.48-14.15 191.31-14.95 191.13-15.75 190.98-16.57 190.83-17.4 190.73-18.23 190.63-19.05 190.58-19.75L190.58-19.75Q190.58-19.9 190.51-20.6 190.43-21.3 190.28-22.23 190.13-23.15 189.93-24.23 189.73-25.3 189.48-26.3L189.48-26.3Q189.48-24.2 189.41-22.18 189.33-20.15 189.48-18.1L189.48-18.1Q189.58-16.8 189.78-15.58 189.98-14.35 190.23-13.1L190.23-13.1Q190.58-11.35 191.28-9.6 191.98-7.85 192.96-6.3 193.93-4.75 195.21-3.48 196.48-2.2 197.98-1.45L197.98-1.45Q198.23-1.35 198.21-1.23 198.18-1.1 197.98-1.15L197.98-1.15Q195.93-1.6 194.38-2.83 192.83-4.05 191.66-5.75 190.48-7.45 189.73-9.45 188.98-11.45 188.58-13.45L188.58-13.45Q188.43-14.3 188.28-15.15 188.13-16 188.03-16.85L188.03-16.85Q187.28-14.45 186.41-12.15 185.53-9.85 184.73-7.75 183.93-5.65 183.33-3.7 182.73-1.75 182.43 0L182.43 0Q182.38 0.05 182.38 0.1L182.38 0.1Q182.28 0.2 182.28 0.2L182.28 0.2Q182.13 0.2 182.13 0L182.13 0Q181.78-2.3 182.31-4.73 182.83-7.15 183.76-9.7 184.68-12.25 185.73-14.93 186.78-17.6 187.48-20.35L187.48-20.35Q187.93-22.05 188.13-23.98 188.33-25.9 188.23-27.78 188.13-29.65 187.61-31.4 187.08-33.15 186.13-34.6L186.13-34.6Q185.88-34.9 185.98-35L185.98-35Q186.08-35.1 186.28-35 186.48-34.9 186.63-34.75L186.63-34.75Q187.63-33.75 188.41-32.83 189.18-31.9 189.78-30.8 190.38-29.7 190.83-28.35 191.28-27 191.63-25.15ZM197.68-13.5L197.68-13.5Q197.98-14.95 198.23-16.05 198.48-17.15 198.81-18.15 199.13-19.15 199.56-20.18 199.98-21.2 200.63-22.45L200.63-22.45Q200.73-22.6 200.96-22.98 201.18-23.35 201.33-23.3L201.33-23.3Q201.43-23.3 201.38-22.85 201.33-22.4 201.28-22.25L201.28-22.25Q201.13-21.6 200.91-20.75 200.68-19.9 200.43-18.98 200.18-18.05 199.93-17.15 199.68-16.25 199.53-15.6L199.53-15.6Q199.33-14.75 199.11-13.53 198.88-12.3 198.66-10.8 198.43-9.3 198.31-7.6 198.18-5.9 198.23-4.1L198.23-4.1Q197.78-4.35 197.31-4.73 196.83-5.1 196.38-5.8L196.38-5.8Q195.33-7.3 194.76-8.97 194.18-10.65 193.83-12.45 193.48-14.25 193.33-16.13 193.18-18 192.98-19.8L192.98-19.8Q192.73-22.15 192.53-24.55 192.33-26.95 191.48-29.5L191.48-29.5Q191.38-29.75 191.36-29.78 191.33-29.8 191.43-29.85L191.43-29.85Q191.58-29.85 191.73-29.6L191.73-29.6Q192.38-28.95 192.86-27.73 193.33-26.5 193.71-25 194.08-23.5 194.36-21.83 194.63-20.15 194.83-18.57 195.03-17 195.21-15.68 195.38-14.35 195.53-13.5L195.53-13.5Q195.88-16.4 196.28-18.68 196.68-20.95 197.13-22.35L197.13-22.35Q197.53-23.6 198.08-24.95 198.63-26.3 199.28-27.63 199.93-28.95 200.61-30.15 201.28-31.35 201.88-32.25L201.88-32.25Q202.03-32.5 202.18-32.7 202.33-32.9 202.43-32.8L202.43-32.8Q202.53-32.7 202.46-32.48 202.38-32.25 202.28-32L202.28-32Q201.63-30.05 201.06-28.5 200.48-26.95 199.91-25.45 199.33-23.95 198.83-22.33 198.33-20.7 197.83-18.7L197.83-18.7Q197.53-17.4 197.13-15.95 196.73-14.5 196.51-12.98 196.28-11.45 196.36-9.88 196.43-8.3 197.08-6.8L197.08-6.8Q197.03-7.65 197.08-8.72 197.13-9.8 197.26-10.78 197.38-11.75 197.51-12.5 197.63-13.25 197.68-13.5ZM196.68-4.3L196.68-4.3Q197.23-3.7 197.83-3.23 198.43-2.75 199.13-2.35L199.13-2.35Q198.73-4.6 198.98-7.03 199.23-9.45 199.83-11.95 200.43-14.45 201.23-16.95 202.03-19.45 202.78-21.85L202.78-21.85Q203.88-25.35 204.56-29.13 205.23-32.9 205.33-36.65L205.33-36.65Q205.33-37.05 205.38-37.05L205.38-37.05Q205.53-37.05 205.53-36.8L205.53-36.8Q205.98-34.65 206.03-32.63 206.08-30.6 205.83-28.63 205.58-26.65 205.13-24.7 204.68-22.75 204.08-20.75L204.08-20.75Q203.33-18.05 202.53-15.33 201.73-12.6 201.11-9.98 200.48-7.35 200.18-4.83 199.88-2.3 200.08-0.05L200.08-0.05Q200.08 0.15 199.98 0.15L199.98 0.15Q199.88 0.15 199.86 0.08 199.83 0 199.78-0.05L199.78-0.05Q199.58-0.55 199.56-0.6 199.53-0.65 199.38-1.15L199.38-1.15Q199.28-1.55 199.08-1.7 198.88-1.85 198.78-1.9L198.78-1.9Q197.93-2.2 197.33-2.45 196.73-2.7 195.73-3.7L195.73-3.7Q195.33-4.1 194.88-4.8 194.43-5.5 194.08-6.18 193.73-6.85 193.58-7.38 193.43-7.9 193.58-7.95L193.58-7.95Q193.63-7.95 193.83-7.78 194.03-7.6 194.23-7.38 194.43-7.15 194.61-6.9 194.78-6.65 194.83-6.6L194.83-6.6Q195.73-5.25 196.68-4.3ZM182.03-20.95L182.03-20.95Q182.63-23.25 183.46-25.65 184.28-28.05 184.83-29.95L184.83-29.95Q184.93-30.2 185.01-30.4 185.08-30.6 185.18-30.55L185.18-30.55Q185.28-30.55 185.28-30.3 185.28-30.05 185.28-29.8L185.28-29.8Q185.33-26.15 184.33-22.5 183.33-18.85 182.08-15.3L182.08-15.3Q181.28-13.05 180.48-10.73 179.68-8.4 179.28-5.7L179.28-5.7Q179.23-5.45 179.23-5.43 179.23-5.4 179.13-5.4L179.13-5.4Q179.08-5.4 178.98-5.75L178.98-5.75Q178.68-7.1 179.01-9.15 179.33-11.2 179.88-13.43 180.43-15.65 181.08-17.68 181.73-19.7 182.03-20.95ZM181.08-10.3L181.08-10.3Q181.98-12.85 183.11-15.63 184.23-18.4 185.38-20.9L185.38-20.9Q185.43-21 185.63-21.35 185.83-21.7 185.93-21.7L185.93-21.7Q186.03-21.65 186.06-21.25 186.08-20.85 185.98-20.7L185.98-20.7Q185.88-20.1 185.71-19.23 185.53-18.35 185.28-17.43 185.03-16.5 184.78-15.65 184.53-14.8 184.33-14.2L184.33-14.2Q184.18-13.75 183.66-12 183.13-10.25 182.58-8.13 182.03-6 181.61-4 181.18-2 181.28-1.05L181.28-1.05Q181.28-0.6 181.13-0.6L181.13-0.6Q181.08-0.6 181.01-0.78 180.93-0.95 180.83-1.05L180.83-1.05Q180.43-1.9 180.31-3.1 180.18-4.3 180.26-5.6 180.33-6.9 180.56-8.13 180.78-9.35 181.08-10.3ZM203.38-33.45L203.38-33.45Q203.58-34.45 203.68-35.38 203.78-36.3 203.88-37.35L203.88-37.35Q203.88-37.45 203.93-37.58 203.98-37.7 204.08-37.7L204.08-37.7Q204.13-37.7 204.28-37.45L204.28-37.45Q204.33-37.35 204.33-37.25L204.33-37.25Q204.48-36.75 204.56-36.35 204.63-35.95 204.66-35.5 204.68-35.05 204.66-34.48 204.63-33.9 204.48-33.15L204.48-33.15Q204.38-32.55 204.16-31.7 203.93-30.85 203.68-30.08 203.43-29.3 203.21-28.78 202.98-28.25 202.83-28.3L202.83-28.3Q202.73-28.3 202.73-28.58 202.73-28.85 202.78-29.18 202.83-29.5 202.88-29.85 202.93-30.2 202.93-30.4L202.93-30.4 203.38-33.45ZM185.83-31.35L185.83-31.35Q185.63-32.2 185.36-33 185.08-33.8 184.63-34.5L184.63-34.5Q184.43-34.8 184.53-34.85L184.53-34.85Q184.63-34.85 184.83-34.75L184.83-34.75 185.03-34.65Q185.68-34.05 186.16-33.45 186.63-32.85 186.93-31.45L186.93-31.45Q187.08-30.9 187.13-30.08 187.18-29.25 187.16-28.45 187.13-27.65 187.03-27.1 186.93-26.55 186.73-26.6L186.73-26.6Q186.63-26.6 186.58-26.85 186.53-27.1 186.48-27.43 186.43-27.75 186.38-28.05 186.33-28.35 186.33-28.45L186.33-28.45Q186.23-29.25 186.13-29.95 186.03-30.65 185.83-31.35Z" opacity="1" transform="matrix(1,0,0,1,0,0)" fill="#2257bf" class="wordmark-text-0" data-fill-palette-color="primary" id="text-0"></path></svg></g></svg></g><g transform="matrix(1,0,0,1,0,59.87178146943394)"><svg viewBox="0 0 224 16.504385239119642" height="16.504385239119642" width="224"><g transform="matrix(1,0,0,1,0,0)"><svg width="224" viewBox="3.98 -36.01 590.09 43.48" height="16.504385239119642" data-palette-color="#2257bf"><path d="M29.22-4.49L29.22 0 3.98 0 3.98-35.16 29.22-35.16 29.22-30.66 13.67-30.66 13.67-19.8 25.68-19.8 25.68-15.33 13.67-15.33 13.67-4.49 29.22-4.49ZM69.31-17.63L69.31-17.63Q69.31-15.06 68.63-12.76 67.94-10.45 66.71-8.5 65.48-6.54 63.77-4.97 62.06-3.39 60-2.29 57.93-1.2 55.58-0.6 53.22 0 50.73 0L50.73 0 35.23 0 35.23-35.16 50.73-35.16Q53.22-35.16 55.56-34.57 57.91-33.98 59.97-32.9 62.03-31.81 63.75-30.25 65.48-28.69 66.71-26.75 67.94-24.8 68.63-22.5 69.31-20.19 69.31-17.63ZM59.47-17.63L59.47-17.63Q59.47-20.48 58.77-23.06 58.08-25.63 56.61-27.59 55.15-29.54 52.89-30.69 50.63-31.84 47.48-31.84L47.48-31.84 44.92-31.84 44.92-3.42 47.48-3.42Q50.58-3.42 52.84-4.58 55.1-5.74 56.58-7.7 58.05-9.67 58.76-12.23 59.47-14.79 59.47-17.63ZM78.46-35.16L85.57-35.16Q84.91-33.18 84.42-31.07 83.93-28.96 83.61-26.84 83.3-24.73 83.14-22.68 82.98-20.63 82.98-18.8L82.98-18.8Q82.98-17.46 82.99-15.78 83-14.11 83.19-12.38 83.37-10.64 83.78-9 84.2-7.35 85.02-6.05 85.83-4.76 87.12-3.98 88.4-3.2 90.3-3.2L90.3-3.2Q91.99-3.2 93.2-3.77 94.4-4.35 95.25-5.32 96.09-6.3 96.59-7.57 97.09-8.84 97.37-10.23 97.65-11.62 97.74-13.05 97.82-14.48 97.82-15.77L97.82-15.77 97.82-35.16 107.51-35.16 107.51-17.29Q107.51-13.45 106.29-10.16 105.07-6.86 102.85-4.43 100.63-2 97.48-0.62 94.33 0.76 90.5 0.76L90.5 0.76Q87.86 0.76 85.59 0.01 83.32-0.73 81.43-2.04 79.54-3.34 78.06-5.14 76.58-6.93 75.59-9.06 74.6-11.18 74.09-13.54 73.58-15.89 73.63-18.31L73.63-18.31 73.63-18.8Q73.65-20.75 74.02-22.84 74.38-24.93 75.01-27.03 75.63-29.13 76.51-31.19 77.39-33.25 78.46-35.16L78.46-35.16ZM146.99-26.44L146.99-26.44 142.81-24.68Q142.33-26.27 141.51-27.59 140.69-28.91 139.56-29.85 138.42-30.79 136.98-31.31 135.54-31.84 133.83-31.84L133.83-31.84Q132-31.84 130.47-31.24 128.95-30.64 127.74-29.59 126.53-28.54 125.63-27.15 124.72-25.76 124.11-24.18 123.5-22.61 123.21-20.92 122.92-19.24 122.92-17.63L122.92-17.63Q122.92-15.06 123.52-12.52 124.11-9.99 125.42-7.96 126.73-5.93 128.8-4.68 130.88-3.42 133.83-3.42L133.83-3.42Q135.39-3.42 136.78-3.94 138.18-4.47 139.31-5.38 140.45-6.3 141.3-7.54 142.16-8.79 142.67-10.23L142.67-10.23 146.89-8.54Q145.96-6.23 144.35-4.48 142.74-2.73 140.68-1.59 138.62-0.44 136.26 0.13 133.9 0.71 131.51 0.71L131.51 0.71Q128.92 0.71 126.54 0.07 124.16-0.56 122.11-1.73 120.06-2.91 118.39-4.57 116.72-6.23 115.53-8.25 114.35-10.28 113.7-12.66 113.05-15.04 113.05-17.63L113.05-17.63Q113.05-20.21 113.7-22.6 114.35-24.98 115.53-27.01 116.72-29.05 118.39-30.71 120.06-32.37 122.11-33.54 124.16-34.72 126.54-35.35 128.92-35.99 131.51-35.99L131.51-35.99Q134-35.99 136.38-35.4 138.76-34.81 140.81-33.63 142.86-32.45 144.46-30.65 146.06-28.86 146.99-26.44ZM186.12-16.82L186.12-16.82 186.12-16.36Q186.07-14.31 185.7-12.11 185.32-9.91 184.63-7.71 183.95-5.52 183-3.37 182.05-1.22 180.86 0.74 179.68 2.71 178.31 4.43 176.94 6.15 175.43 7.47L175.43 7.47 171.79 5.37Q172.65 3.93 173.34 2.23 174.04 0.54 174.6-1.32 175.16-3.17 175.56-5.13 175.97-7.08 176.24-9.01 176.5-10.94 176.64-12.81 176.77-14.67 176.77-16.36L176.77-16.36Q176.77-17.68 176.76-19.35 176.75-21.02 176.56-22.75 176.38-24.49 175.97-26.14 175.55-27.78 174.73-29.08 173.92-30.37 172.63-31.15 171.35-31.93 169.45-31.93L169.45-31.93Q167.76-31.93 166.55-31.36 165.35-30.79 164.5-29.82 163.66-28.86 163.16-27.59 162.66-26.32 162.38-24.91 162.1-23.51 162.01-22.08 161.93-20.65 161.93-19.38L161.93-19.38 161.93-12.57 172.45-12.57 172.45-8.54 161.93-8.54 161.93 0 152.24 0 152.24-17.87Q152.24-21.7 153.46-25 154.68-28.3 156.91-30.73 159.15-33.15 162.28-34.53 165.42-35.91 169.28-35.91L169.28-35.91Q171.89-35.91 174.17-35.17 176.45-34.42 178.33-33.12 180.21-31.81 181.69-30.02 183.17-28.22 184.16-26.1 185.15-23.97 185.66-21.61 186.17-19.24 186.12-16.82ZM206.87-30.66L206.87 0 197.18 0 197.18-30.66 187.61-30.66 187.61-35.16 216.44-35.16 216.44-30.66 206.87-30.66ZM231.09-35.16L231.09 0 221.4 0 221.4-35.16 231.09-35.16ZM275.74-17.63L275.74-17.63Q275.74-13.38 274.27-9.97 272.81-6.57 270.22-4.2 267.63-1.83 264.09-0.56 260.55 0.71 256.43 0.71L256.43 0.71Q252.3 0.71 248.76-0.56 245.22-1.83 242.63-4.2 240.05-6.57 238.58-9.97 237.12-13.38 237.12-17.63L237.12-17.63Q237.12-21.95 238.57-25.35 240.02-28.76 242.6-31.12 245.17-33.47 248.71-34.73 252.25-35.99 256.43-35.99L256.43-35.99Q260.6-35.99 264.14-34.73 267.68-33.47 270.26-31.12 272.83-28.76 274.29-25.35 275.74-21.95 275.74-17.63ZM265.88-17.63L265.88-17.63Q265.88-19.24 265.73-20.92 265.58-22.61 265.19-24.19 264.8-25.78 264.13-27.17 263.46-28.56 262.41-29.6 261.36-30.64 259.88-31.24 258.41-31.84 256.43-31.84L256.43-31.84Q254.43-31.84 252.94-31.24 251.45-30.64 250.4-29.61 249.35-28.59 248.69-27.2 248.03-25.81 247.65-24.23 247.27-22.66 247.13-20.96 246.98-19.26 246.98-17.63L246.98-17.63Q246.98-16.02 247.13-14.33 247.27-12.65 247.66-11.07 248.05-9.5 248.73-8.11 249.4-6.71 250.45-5.68 251.5-4.64 252.97-4.03 254.45-3.42 256.43-3.42L256.43-3.42Q258.36-3.42 259.8-4.04 261.24-4.66 262.29-5.73 263.34-6.79 264.03-8.19 264.73-9.59 265.13-11.17 265.53-12.74 265.71-14.4 265.88-16.06 265.88-17.63ZM286.26-24.12L286.26 0 281.77 0 281.77-35.16 288.07-35.16 309.43-11.01 309.43-35.16 313.9-35.16 313.9 0 307.6 0 286.26-24.12ZM345.7-35.16L345.7 0 336.01 0 336.01-35.16 345.7-35.16ZM382.47-10.74L382.47-10.74Q382.47-8.47 381.89-6.74 381.32-5 380.28-3.74 379.24-2.47 377.83-1.61 376.41-0.76 374.74-0.24 373.07 0.27 371.2 0.49 369.33 0.71 367.4 0.71L367.4 0.71Q364.87 0.71 362.72 0.33 360.57-0.05 358.68-0.87 356.78-1.68 355.04-2.98 353.29-4.27 351.56-6.13L351.56-6.13 356.54-11.18Q357.22-9.5 358.42-8.07 359.62-6.64 361.04-5.62 362.47-4.59 364.01-4 365.55-3.42 366.92-3.42L366.92-3.42Q368.53-3.42 369.94-3.65 371.36-3.88 372.41-4.42 373.46-4.96 374.06-5.85 374.66-6.74 374.66-8.08L374.66-8.08Q374.66-9.11 374.19-9.84 373.73-10.57 372.98-11.1 372.24-11.62 371.29-11.99 370.33-12.35 369.35-12.61 368.36-12.87 367.4-13.07 366.45-13.28 365.72-13.5L365.72-13.5Q364.28-13.92 362.72-14.39 361.15-14.87 359.64-15.48 358.13-16.09 356.77-16.88 355.42-17.68 354.39-18.76 353.37-19.85 352.76-21.28 352.15-22.71 352.15-24.56L352.15-24.56Q352.15-26.78 352.69-28.5 353.24-30.22 354.24-31.49 355.25-32.76 356.61-33.63 357.98-34.5 359.62-35.02 361.25-35.55 363.1-35.78 364.94-36.01 366.87-36.01L366.87-36.01Q369.5-36.01 371.66-35.52 373.83-35.03 375.66-34.13 377.49-33.23 379.01-31.97 380.54-30.71 381.88-29.17L381.88-29.17 376.9-24.12Q376.32-25.88 375.28-27.29 374.24-28.71 372.97-29.72 371.7-30.74 370.31-31.29 368.92-31.84 367.62-31.84L367.62-31.84Q365.94-31.84 364.52-31.6 363.11-31.37 362.09-30.85 361.08-30.32 360.52-29.43 359.96-28.54 359.96-27.22L359.96-27.22Q359.96-26.17 360.37-25.44 360.79-24.71 361.48-24.19 362.18-23.68 363.06-23.35 363.94-23.02 364.88-22.78 365.82-22.53 366.73-22.35 367.65-22.17 368.41-21.95L368.41-21.95Q369.87-21.53 371.48-21.07 373.09-20.61 374.66-19.98 376.22-19.36 377.63-18.55 379.05-17.75 380.12-16.64 381.2-15.53 381.83-14.07 382.47-12.62 382.47-10.74ZM412.35-13.13L412.35 0 402.65 0 402.65-35.16 421.65-35.16Q424.11-35.16 426.37-34.5 428.63-33.84 430.36-32.51 432.1-31.18 433.13-29.16 434.17-27.15 434.17-24.44L434.17-24.44Q434.17-22.73 433.68-21.23 433.2-19.73 432.33-18.48 431.46-17.24 430.29-16.24 429.12-15.23 427.73-14.55 426.33-13.87 424.78-13.5 423.23-13.13 421.65-13.13L421.65-13.13 412.35-13.13ZM424.36-24.44L424.36-24.44Q424.36-27.83 422.64-29.77 420.91-31.71 417.45-31.71L417.45-31.71 412.35-31.71 412.35-16.46 417.45-16.46Q419.3-16.46 420.61-17.05 421.92-17.65 422.75-18.73 423.58-19.8 423.97-21.25 424.36-22.71 424.36-24.44ZM475.92-17.63L475.92-17.63Q475.92-13.38 474.45-9.97 472.99-6.57 470.4-4.2 467.81-1.83 464.27-0.56 460.73 0.71 456.61 0.71L456.61 0.71Q452.48 0.71 448.94-0.56 445.4-1.83 442.81-4.2 440.22-6.57 438.76-9.97 437.29-13.38 437.29-17.63L437.29-17.63Q437.29-21.95 438.75-25.35 440.2-28.76 442.78-31.12 445.35-33.47 448.89-34.73 452.43-35.99 456.61-35.99L456.61-35.99Q460.78-35.99 464.32-34.73 467.86-33.47 470.44-31.12 473.01-28.76 474.46-25.35 475.92-21.95 475.92-17.63ZM466.05-17.63L466.05-17.63Q466.05-19.24 465.91-20.92 465.76-22.61 465.37-24.19 464.98-25.78 464.31-27.17 463.64-28.56 462.59-29.6 461.54-30.64 460.06-31.24 458.58-31.84 456.61-31.84L456.61-31.84Q454.6-31.84 453.11-31.24 451.63-30.64 450.58-29.61 449.53-28.59 448.87-27.2 448.21-25.81 447.83-24.23 447.45-22.66 447.3-20.96 447.16-19.26 447.16-17.63L447.16-17.63Q447.16-16.02 447.3-14.33 447.45-12.65 447.84-11.07 448.23-9.5 448.9-8.11 449.57-6.71 450.62-5.68 451.67-4.64 453.15-4.03 454.63-3.42 456.61-3.42L456.61-3.42Q458.53-3.42 459.97-4.04 461.42-4.66 462.47-5.73 463.51-6.79 464.21-8.19 464.91-9.59 465.31-11.17 465.71-12.74 465.88-14.4 466.05-16.06 466.05-17.63ZM502.26-22.46L496.62 0 487.76 0 478.53-35.16 488.41-35.16 494.25-10.21 499.43-35.16 508.31-35.16 513.98-9.57 520.35-35.16 526.33-35.16 516.1 0 507.21 0 502.26-22.46ZM556.55-4.49L556.55 0 531.31 0 531.31-35.16 556.55-35.16 556.55-30.66 541-30.66 541-19.8 553.01-19.8 553.01-15.33 541-15.33 541-4.49 556.55-4.49ZM572.25-13.13L572.25 0 562.56 0 562.56-35.16 579.84-35.16Q582.28-35.16 584.55-34.58 586.82-34.01 588.57-32.78 590.31-31.54 591.35-29.59 592.39-27.64 592.39-24.85L592.39-24.85Q592.39-22.68 591.47-20.76 590.56-18.85 589.03-17.35 587.51-15.84 585.53-14.86 583.55-13.87 581.43-13.55L581.43-13.55Q582.38-11.94 583.42-10.5 584.45-9.06 585.52-7.8 586.58-6.54 587.63-5.48 588.68-4.42 589.63-3.54L589.63-3.54Q591.88-1.49 594.07 0L594.07 0 581.99 0Q580.52-1.39 579.21-3.34L579.21-3.34Q578.08-5 576.95-7.46 575.81-9.91 575.2-13.13L575.2-13.13 572.25-13.13ZM582.55-24.85L582.55-24.85Q582.55-28.39 580.83-30.05 579.11-31.71 575.67-31.71L575.67-31.71 572.25-31.71 572.25-16.46 575.67-16.46Q577.5-16.46 578.8-17.15 580.11-17.85 580.94-19.01 581.77-20.17 582.16-21.68 582.55-23.19 582.55-24.85Z" opacity="1" transform="matrix(1,0,0,1,0,0)" fill="#2257bf" class="slogan-text-1" data-fill-palette-color="secondary" id="text-1"></path></svg></g></svg></g></svg></g></svg></g><g transform="matrix(1,0,0,1,45.522069017385945,0)"><svg viewBox="0 0 132.9558619652281 105.55186239122106" height="105.55186239122106" width="132.9558619652281"><g><svg xmlns="http://www.w3.org/2000/svg" xmlns:xlink="http://www.w3.org/1999/xlink" version="1.1" x="0" y="0" viewBox="5.249 17.412 91.9325382787114 72.98400000000001" enable-background="new 0 0 100 100" xml:space="preserve" height="105.55186239122106" width="132.9558619652281" class="icon-icon-0" data-fill-palette-color="accent" id="icon-0"><g fill="#2257bf" data-fill-palette-color="accent"><path fill="#2257bf" d="M96.863 81.328L96.576 80.685 88.728 61.56C87.788 59.64 87.196 58.16 84.807 58.16H76.896V55.387C79.549 53.723 81.319 50.781 81.319 47.416 81.319 44.054 79.549 41.112 76.896 39.447V22.539A5.136 5.136 0 0 0 71.761 17.412H10.385C7.553 17.412 5.249 19.711 5.249 22.539V65.328A5.14 5.14 0 0 0 10.385 70.457H57.287V90.396H86.527L95.04 86.132A3.64 3.64 0 0 0 96.863 81.328M74.493 38.373A9.4 9.4 0 0 0 71.905 38.004C66.709 38.004 62.494 42.218 62.494 47.415A9.41 9.41 0 0 0 71.905 56.828C72.803 56.828 73.669 56.694 74.493 56.459V58.159H61.43L51.142 52.319 47.159 42.666A3.64 3.64 0 0 0 43.174 40.246L35.537 26.816A1.202 1.202 0 1 0 33.447 28.004L40.916 41.137C39.67 42.049 39.081 43.69 39.605 45.225L42.835 55.85 55.074 68.052H10.385A2.73 2.73 0 0 1 7.653 65.326V22.539A2.73 2.73 0 0 1 10.385 19.816H71.762A2.73 2.73 0 0 1 74.493 22.539z" data-fill-palette-color="accent"></path><g fill="#2257bf" data-fill-palette-color="accent"><path fill="#2257bf" d="M29.608 42.853H14.338A1.2 1.2 0 0 1 13.136 41.651V26.337C13.136 25.673 13.674 25.135 14.338 25.135H29.609C30.273 25.135 30.811 25.673 30.811 26.337V41.651A1.203 1.203 0 0 1 29.608 42.853" data-fill-palette-color="accent"></path></g><g fill="#2257bf" data-fill-palette-color="accent"><path fill="#2257bf" d="M35.758 49.123H14.338A1.706 1.706 0 1 1 14.338 45.709H35.759A1.706 1.706 0 1 1 35.758 49.123" data-fill-palette-color="accent"></path></g><g fill="#2257bf" data-fill-palette-color="accent"><path fill="#2257bf" d="M25.223 56.428H14.338A1.707 1.707 0 1 1 14.338 53.014H25.224A1.707 1.707 0 1 1 25.223 56.428" data-fill-palette-color="accent"></path></g></g></svg></g></svg></g><g></g></svg></g></svg></g></svg></g></svg></g><defs></defs></svg><rect width="448" height="360" fill="none" stroke="none" visibility="hidden"></rect></g></svg></g></svg>